<svg xmlns="http://www.w3.org/2000/svg" viewBox="0 0 500 500"><g id="freepik--background-simple--inject-6"><path d="M452.28,118.76q-2.49-4.14-5.18-8.12c-24-35.26-64-59.4-102.78-70.33a220.85,220.85,0,0,0-51.9-8C178.07,28.21,136.07,122.49,99.23,146.79S5.85,212.62,13,299.84c5.38,66.32,43.11,129.73,112,158.58a194.27,194.27,0,0,0,23.91,8.25,227.93,227.93,0,0,0,50.5,7.77c52.09,2.32,94.39-10.24,135.76-41.86,9.62-7.35,19.19-15.64,31.67-16.55,9.07-.66,17.67,2.6,8.19,11.37-11.15,10.3,1.71,30.57,30,16.49,47.25-23.52,66.69-74.26,75.85-125.85C492.08,254.71,486.63,176,452.28,118.76Z" style="fill:#60A5FA"></path><path d="M452.28,118.76q-2.49-4.14-5.18-8.12c-24-35.26-64-59.4-102.78-70.33a220.85,220.85,0,0,0-51.9-8C178.07,28.21,136.07,122.49,99.23,146.79S5.85,212.62,13,299.84c5.38,66.32,43.11,129.73,112,158.58a194.27,194.27,0,0,0,23.91,8.25,227.93,227.93,0,0,0,50.5,7.77c52.09,2.32,94.39-10.24,135.76-41.86,9.62-7.35,19.19-15.64,31.67-16.55,9.07-.66,17.67,2.6,8.19,11.37-11.15,10.3,1.71,30.57,30,16.49,47.25-23.52,66.69-74.26,75.85-125.85C492.08,254.71,486.63,176,452.28,118.76Z" style="fill:#fff;opacity:0.7000000000000001"></path></g><g id="freepik--Floor--inject-6"><path d="M475.76,401.33H39.12a.5.5,0,0,1,0-1H475.76a.5.5,0,0,1,0,1Z" style="fill:#263238"></path><path d="M32.2,401.33H22.92a.5.5,0,0,1,0-1H32.2a.5.5,0,0,1,0,1Z" style="fill:#263238"></path></g><g id="freepik--Plant--inject-6"><path d="M399.05,278.78s-2.51,6.9-7.84,7.85-14.74-9.42-8.78-14.75S396.54,275,399.05,278.78Z" style="fill:#60A5FA"></path><path d="M390.5,287.19c-3.48,0-7.75-3.63-9.51-7.27-1.6-3.29-1.2-6.35,1.1-8.41a6.83,6.83,0,0,1,5.63-1.78c4.73.6,9.62,5.58,11.75,8.77a.48.48,0,0,1,0,.45c-.1.3-2.67,7.19-8.22,8.17A5.29,5.29,0,0,1,390.5,287.19Zm-3.74-16.52a5.88,5.88,0,0,0-4,1.58c-2.66,2.38-1.69,5.56-.88,7.24,1.91,3.91,6.39,7.14,9.24,6.64,4.45-.78,6.88-6.1,7.37-7.29-2.1-3-6.6-7.57-10.9-8.12A5.87,5.87,0,0,0,386.76,270.67Z" style="fill:#263238"></path><path d="M407.21,244.9s-7.84,19.14-4.7,28.55,22.58,16.31,28.23,4.08-6.9-29.49-11.61-33.26S408.78,241.76,407.21,244.9Z" style="fill:#60A5FA"></path><path d="M419.88,284.6l-1,0c-7.42-.41-15-5.33-16.86-11-3.16-9.48,4.39-28.11,4.72-28.9,0,0,0,0,0,0a6.09,6.09,0,0,1,4.28-3,10.1,10.1,0,0,1,8.41,2.23c4.81,3.86,17.51,21.37,11.75,33.86C429.14,282.19,425.14,284.6,419.88,284.6Zm-12.21-39.49c-.28.67-7.69,19.17-4.69,28.18,1.73,5.19,9,9.9,16,10.28,3.09.18,8.65-.41,11.35-6.25,5.53-12-6.8-28.92-11.47-32.66a9.12,9.12,0,0,0-7.57-2A5.11,5.11,0,0,0,407.67,245.11Z" style="fill:#263238"></path><path d="M453,253.06S439.53,265.29,438,277.53s7.53,16.63,16.94,15.06,14.12-25.42,11.29-36.4S453,253.06,453,253.06Z" style="fill:#60A5FA"></path><path d="M451.27,293.4a14.68,14.68,0,0,1-10.35-3.69c-2.93-2.82-4.12-7.06-3.46-12.25,1.58-12.27,14.66-24.27,15.22-24.77l0,0c.22-.16,5.29-3.95,9.49-2.48,2.16.75,3.67,2.73,4.48,5.89,2,7.94.22,23.62-5.2,31.94-1.93,3-4.12,4.67-6.5,5.07A22.78,22.78,0,0,1,451.27,293.4Zm2.06-40c-.54.51-13.37,12.44-14.88,24.15-.62,4.87.47,8.81,3.16,11.4,3,2.87,7.8,4,13.21,3.1,2.09-.34,4.05-1.9,5.82-4.63,5.28-8.11,7.06-23.4,5.07-31.14-.72-2.81-2-4.56-3.84-5.2C458.29,249.87,453.66,253.21,453.33,253.44Z" style="fill:#263238"></path><path d="M455.53,320.82s-15.06.63-15.69,7.85,6.59,8.78,13.8,2.51S461.8,321.14,455.53,320.82Z" style="fill:#60A5FA"></path><path d="M445.06,335.61a6.13,6.13,0,0,1-2.85-.65c-2.11-1.07-3.13-3.32-2.87-6.34.66-7.56,15.53-8.27,16.17-8.3h0c2.56.13,4.08.84,4.52,2.12.68,2-1.31,4.95-6.1,9.11C450.94,334.19,447.75,335.61,445.06,335.61Zm10.47-14.29c-.65,0-14.62.81-15.19,7.39-.23,2.58.6,4.49,2.32,5.36,2.64,1.35,6.82.06,10.66-3.27,5.74-5,6.1-7.18,5.81-8C458.76,321.71,457,321.4,455.53,321.32Z" style="fill:#263238"></path><path d="M440.09,330.89a.5.5,0,0,1-.21-1c.49-.22,12-5.47,17.33-6.41a.49.49,0,0,1,.58.41.48.48,0,0,1-.4.57c-5.22.93-17,6.29-17.09,6.34A.54.54,0,0,1,440.09,330.89Z" style="fill:#263238"></path><path d="M418.19,335.88s-1.57,7.53-7.21,10.36S395.29,343.1,400.62,334,415.37,332.12,418.19,335.88Z" style="fill:#60A5FA"></path><path d="M407.83,347.43a9.91,9.91,0,0,1-7.06-3c-2.66-2.85-2.88-6.73-.58-10.65,1.72-2.93,4-4.49,6.73-4.64,4.74-.28,9.69,3.83,11.67,6.47a.48.48,0,0,1,.09.4c-.06.32-1.68,7.8-7.48,10.7A7.5,7.5,0,0,1,407.83,347.43Zm-.47-17.34H407c-2.4.14-4.39,1.54-5.93,4.15-2.05,3.51-1.89,7,.45,9.46s6.46,3.47,9.25,2.08c4.83-2.42,6.59-8.56,6.9-9.79C415.65,333.44,411.31,330.09,407.36,330.09Z" style="fill:#263238"></path><path d="M405,312.35s-2.83-6.27-13.81-2.19-15.37,10.35-8.47,12.55S405,312.35,405,312.35Z" style="fill:#60A5FA"></path><path d="M384.54,323.46a6.43,6.43,0,0,1-2-.28c-3-.95-3.63-2.51-3.66-3.65-.08-3.22,4.67-7.08,12.11-9.84,11.28-4.2,14.4,2.39,14.43,2.46a.5.5,0,0,1-.14.59C404.75,313.21,392.1,323.46,384.54,323.46Zm13.39-14.19a19.12,19.12,0,0,0-6.55,1.35c-7.94,3-11.5,6.67-11.45,8.88,0,1.49,1.63,2.3,3,2.73,6,1.92,19.24-8.23,21.48-10C403.84,311.38,402.08,309.27,397.93,309.27Z" style="fill:#263238"></path><path d="M385,319.17a.5.5,0,0,1-.32-.88c6.33-5.39,17.71-6.67,18.19-6.72a.5.5,0,0,1,.55.44.5.5,0,0,1-.44.55c-.12,0-11.56,1.31-17.65,6.49A.52.52,0,0,1,385,319.17Z" style="fill:#263238"></path><path d="M436.39,237.06s1.88,4.39,5.65,3.45,4.7-6.59,10.66-5,11,8.47,11,5.33-7.53-11.29-16-11.29S436.7,233,436.39,237.06Z" style="fill:#60A5FA"></path><path d="M463.21,242.13c-.71,0-1.65-.72-3.16-1.87-1.95-1.49-4.63-3.54-7.47-4.29-3.41-.9-5,.72-6.68,2.42a8.2,8.2,0,0,1-3.74,2.6c-3.3.83-5.52-2.08-6.23-3.74a.45.45,0,0,1,0-.23c.41-5.31,4.38-8,11.79-8,8.53,0,16.5,8.11,16.5,11.79a1.31,1.31,0,0,1-.55,1.22A1,1,0,0,1,463.21,242.13Zm-12.46-7.42a8.17,8.17,0,0,1,2.08.29c3,.8,5.81,2.92,7.83,4.47a11.6,11.6,0,0,0,2.51,1.66s0-.13,0-.31c0-2.64-7-10.79-15.5-10.79-6.83,0-10.36,2.27-10.78,6.94.31.64,2,3.81,5,3.05a7.44,7.44,0,0,0,3.27-2.33C446.58,236.28,448.12,234.71,450.75,234.71Z" style="fill:#263238"></path><path d="M428.84,363.23h0a.49.49,0,0,1-.47-.52c0-.27,1.39-26.41,0-42.59s-7.88-35.32-7.95-35.52l-7.91-35.3a.5.5,0,0,1,1-.22l7.9,35.25c.05.14,6.58,19.42,8,35.7s0,42.47,0,42.73A.5.5,0,0,1,428.84,363.23Z" style="fill:#263238"></path><path d="M432.12,363.23h0a.49.49,0,0,1-.49-.51c0-.21.49-21.75,2.35-35.68s9.32-36,9.4-36.19l14.11-30.24a.5.5,0,0,1,.9.42l-14.09,30.19c-.05.17-7.48,22.1-9.33,35.95s-2.34,35.36-2.34,35.57A.5.5,0,0,1,432.12,363.23Z" style="fill:#263238"></path><path d="M434.93,363.7h0a.51.51,0,0,1-.47-.53c1.81-30.68,4.92-33.09,5.52-33.26a.5.5,0,0,1,.35.93c-.22.18-3.14,3-4.87,32.39A.49.49,0,0,1,434.93,363.7Z" style="fill:#263238"></path><path d="M424.15,362.76h0a.5.5,0,0,1-.47-.52c0-.17.91-16.86-.92-22.8-.63-2.05-1.48-3.29-2.46-3.58a2.12,2.12,0,0,0-1.76.4.42.42,0,0,1-.26.12c-.08,0-8.48,1.05-11.46,5.82a.5.5,0,1,1-.84-.53c3.05-4.88,10.87-6.11,12.05-6.27a3,3,0,0,1,2.54-.5c1.34.39,2.4,1.82,3.15,4.25,1.88,6.11,1,22.45,1,23.14A.5.5,0,0,1,424.15,362.76Z" style="fill:#263238"></path><path d="M426.5,362.29h-.08a.51.51,0,0,1-.42-.57c0-.15,2.22-15.27-.19-28.77a.5.5,0,0,1,.41-.58.51.51,0,0,1,.58.4c2.44,13.67.21,29,.19,29.1A.49.49,0,0,1,426.5,362.29Z" style="fill:#263238"></path><path d="M425.56,329.85a.5.5,0,0,1-.49-.38,38.31,38.31,0,0,0-1.39-4.53c-5.41-14.44-18.44-12.12-18.57-12.1a.5.5,0,1,1-.19-1c.14,0,14-2.5,19.7,12.72a40.37,40.37,0,0,1,1.42,4.65.5.5,0,0,1-.36.61Z" style="fill:#263238"></path><path d="M461.4,297.82s2.82-6.28,13.8-2.2,15.37,10.36,8.47,12.55S461.4,297.82,461.4,297.82Z" style="fill:#60A5FA"></path><path d="M481.87,308.93c-7.56,0-20.21-10.25-20.79-10.72a.51.51,0,0,1-.14-.6c0-.06,3.15-6.65,14.43-2.46,7.44,2.76,12.19,6.63,12.11,9.84,0,1.15-.68,2.71-3.66,3.66A6.43,6.43,0,0,1,481.87,308.93ZM462,297.69c2.24,1.78,15.45,11.92,21.48,10,1.33-.43,2.93-1.25,3-2.73,0-2.21-3.51-5.93-11.45-8.88C466,292.74,462.8,296.5,462,297.69Z" style="fill:#263238"></path><path d="M480.57,304.71a.51.51,0,0,1-.39-.19c-5.13-6.33-16.14-5.79-16.25-5.79a.48.48,0,0,1-.52-.47.5.5,0,0,1,.47-.53c.47,0,11.63-.56,17.08,6.16a.49.49,0,0,1-.08.7A.47.47,0,0,1,480.57,304.71Z" style="fill:#263238"></path><path d="M437.28,362.76a.49.49,0,0,1-.5-.49c0-.37-.58-37.3,5-52.22a20.21,20.21,0,0,1,7.31-9.9.52.52,0,0,1,.7.13.51.51,0,0,1-.13.7,19.18,19.18,0,0,0-6.94,9.42c-5.53,14.74-5,51.49-5,51.85a.5.5,0,0,1-.49.51Z" style="fill:#263238"></path><path d="M452,299.59a.49.49,0,0,1-.45-.3.51.51,0,0,1,.25-.66,17.69,17.69,0,0,1,9.65-1.3.5.5,0,0,1,.4.58.51.51,0,0,1-.59.4,17.06,17.06,0,0,0-9.06,1.24A.45.45,0,0,1,452,299.59Z" style="fill:#263238"></path><path d="M430.71,362.76h-.06a.5.5,0,0,1-.43-.56c1.38-10.13-1.33-37.59-8.89-59.31a44.12,44.12,0,0,0-7.86-14.21.51.51,0,0,1,.06-.71.49.49,0,0,1,.7.06,45.15,45.15,0,0,1,8,14.53c7.6,21.86,10.32,49.54,8.93,59.77A.51.51,0,0,1,430.71,362.76Z" style="fill:#263238"></path><path d="M412.22,287.06a.51.51,0,0,1-.36-.15c-6.41-6.54-12.82-7.62-12.88-7.63s-9.5-2.46-13,.77a.5.5,0,0,1-.71,0,.5.5,0,0,1,0-.7c3.93-3.61,13.5-1.13,13.9-1,.22,0,6.73,1.11,13.39,7.91a.5.5,0,0,1,0,.71A.49.49,0,0,1,412.22,287.06Z" style="fill:#263238"></path><path d="M432.12,363.23h0a.5.5,0,0,1-.49-.5c0-.27.33-27.3.78-54.2a.52.52,0,0,1,.51-.5.52.52,0,0,1,.49.51c-.45,26.91-.78,53.93-.78,54.2A.5.5,0,0,1,432.12,363.23Z" style="fill:#263238"></path><path d="M433,305.65h0a.5.5,0,0,1-.49-.51c.37-21.66.72-36.84,1-45.09.81-21.17,2-23.1,2.52-23.41.5-1.16,3-5.5,11.88-4.93a.5.5,0,0,1,.47.53.51.51,0,0,1-.53.47c-9.2-.6-10.91,4.29-11,4.5a.51.51,0,0,1-.32.32c-.3.55-1.32,3.8-2,22.55-.32,8.25-.67,23.42-1,45.08A.51.51,0,0,1,433,305.65Z" style="fill:#263238"></path><path d="M447.14,410.55H416.63a4.06,4.06,0,0,1-4-3.67l-4.38-45.08h47.35l-4.38,45.08A4.06,4.06,0,0,1,447.14,410.55Z" style="fill:#263238"></path><path d="M447.14,411.05H416.63a4.54,4.54,0,0,1-4.54-4.12l-4.38-45.09a.52.52,0,0,1,.13-.38.5.5,0,0,1,.37-.17h47.35a.5.5,0,0,1,.37.17.52.52,0,0,1,.13.38l-4.38,45.09A4.54,4.54,0,0,1,447.14,411.05Zm-38.38-48.76,4.33,44.54a3.54,3.54,0,0,0,3.54,3.22h30.51a3.54,3.54,0,0,0,3.54-3.22L455,362.29Z" style="fill:#263238"></path><polygon points="409.62 376.33 410.12 381.49 453.65 381.49 454.15 376.33 409.62 376.33" style="fill:#fff"></polygon><path d="M453.65,382H410.12a.51.51,0,0,1-.5-.45l-.5-5.15a.56.56,0,0,1,.13-.39.52.52,0,0,1,.37-.16h44.53a.52.52,0,0,1,.37.16.56.56,0,0,1,.13.39l-.5,5.15A.5.5,0,0,1,453.65,382Zm-43.07-1h42.61l.41-4.15H410.17Z" style="fill:#263238"></path><polygon points="452.56 392.74 452.83 389.92 410.94 389.92 411.22 392.74 452.56 392.74" style="fill:#fff"></polygon><path d="M452.55,393.24H411.22a.5.5,0,0,1-.5-.45l-.28-2.82a.52.52,0,0,1,.13-.38.5.5,0,0,1,.37-.17h41.89a.5.5,0,0,1,.37.17.52.52,0,0,1,.13.38l-.28,2.82A.5.5,0,0,1,452.55,393.24Zm-40.88-1H452.1l.18-1.82H411.49Z" style="fill:#263238"></path></g><g id="freepik--Graphics--inject-6"><path d="M56.7,196a.5.5,0,0,1-.5-.5v-8.87a.5.5,0,0,1,1,0v8.87A.5.5,0,0,1,56.7,196Z" style="fill:#263238"></path><path d="M61.13,191.6H52.26a.5.5,0,0,1-.5-.5.51.51,0,0,1,.5-.5h8.87a.5.5,0,0,1,.5.5A.5.5,0,0,1,61.13,191.6Z" style="fill:#263238"></path><path d="M433.89,218.89a.5.5,0,0,1-.5-.5v-8.87a.5.5,0,0,1,.5-.5.5.5,0,0,1,.5.5v8.87A.51.51,0,0,1,433.89,218.89Z" style="fill:#263238"></path><path d="M438.32,214.45h-8.87a.5.5,0,0,1-.5-.5.5.5,0,0,1,.5-.5h8.87a.5.5,0,0,1,.5.5A.5.5,0,0,1,438.32,214.45Z" style="fill:#263238"></path><path d="M386.18,116.54a.5.5,0,0,1-.5-.5v-8.87a.5.5,0,0,1,.5-.5.5.5,0,0,1,.5.5V116A.5.5,0,0,1,386.18,116.54Z" style="fill:#263238"></path><path d="M390.61,112.11h-8.87a.5.5,0,0,1-.5-.5.5.5,0,0,1,.5-.5h8.87a.5.5,0,0,1,.5.5A.5.5,0,0,1,390.61,112.11Z" style="fill:#263238"></path><path d="M206.88,65a.5.5,0,0,1-.5-.5V55.61a.5.5,0,0,1,.5-.5.51.51,0,0,1,.5.5v8.87A.5.5,0,0,1,206.88,65Z" style="fill:#263238"></path><path d="M211.31,60.55h-8.87a.51.51,0,0,1-.5-.5.5.5,0,0,1,.5-.5h8.87a.5.5,0,0,1,.5.5A.5.5,0,0,1,211.31,60.55Z" style="fill:#263238"></path><path d="M151.47,385.47a.51.51,0,0,1-.5-.5V376.1a.5.5,0,0,1,.5-.5.5.5,0,0,1,.5.5V385A.5.5,0,0,1,151.47,385.47Z" style="fill:#263238"></path><path d="M155.91,381H147a.5.5,0,0,1-.5-.5.5.5,0,0,1,.5-.5h8.87a.51.51,0,0,1,.5.5A.5.5,0,0,1,155.91,381Z" style="fill:#263238"></path><path d="M41.43,321.23a.5.5,0,0,1-.5-.5v-8.87a.51.51,0,0,1,.5-.5.5.5,0,0,1,.5.5v8.87A.5.5,0,0,1,41.43,321.23Z" style="fill:#263238"></path><path d="M45.87,316.8H37a.5.5,0,0,1-.5-.5.5.5,0,0,1,.5-.5h8.87a.5.5,0,0,1,.5.5A.51.51,0,0,1,45.87,316.8Z" style="fill:#263238"></path><path d="M348.06,86.53a7.83,7.83,0,1,1,7.84-7.83A7.84,7.84,0,0,1,348.06,86.53Zm0-14.66a6.83,6.83,0,1,0,6.84,6.83A6.83,6.83,0,0,0,348.06,71.87Z" style="fill:#263238"></path><path d="M328.87,383.57a7.84,7.84,0,1,1,7.83-7.84A7.84,7.84,0,0,1,328.87,383.57Zm0-14.67a6.84,6.84,0,1,0,6.83,6.83A6.83,6.83,0,0,0,328.87,368.9Z" style="fill:#263238"></path><path d="M38.73,255.87A7.84,7.84,0,1,1,46.56,248,7.84,7.84,0,0,1,38.73,255.87Zm0-14.67A6.84,6.84,0,1,0,45.56,248,6.83,6.83,0,0,0,38.73,241.2Z" style="fill:#263238"></path><path d="M387.06,155.87a2.17,2.17,0,1,1,2.17-2.17A2.17,2.17,0,0,1,387.06,155.87Zm0-3.34a1.17,1.17,0,1,0,1.17,1.17A1.17,1.17,0,0,0,387.06,152.53Z" style="fill:#263238"></path><path d="M124.54,81a2.17,2.17,0,1,1,2.17-2.16A2.17,2.17,0,0,1,124.54,81Zm0-3.33a1.17,1.17,0,1,0,1.17,1.17A1.17,1.17,0,0,0,124.54,77.66Z" style="fill:#263238"></path><path d="M260.62,374.05a2.17,2.17,0,1,1,2.16-2.17A2.17,2.17,0,0,1,260.62,374.05Zm0-3.33a1.17,1.17,0,1,0,1.16,1.16A1.16,1.16,0,0,0,260.62,370.72Z" style="fill:#263238"></path></g><g id="freepik--Device--inject-6"><path d="M248.2,376.39l-3.33-26.78H191l-3.32,26.78c-.05.53-.11,1.05-.18,1.58A29.44,29.44,0,0,1,172,399.66l-14.44,7.72H278.33l-14.45-7.72A29.42,29.42,0,0,1,248.38,378C248.3,377.44,248.24,376.92,248.2,376.39Z" style="fill:#fff"></path><path d="M278.33,407.88H157.52a.5.5,0,0,1-.24-.94l14.45-7.72A28.93,28.93,0,0,0,187,377.9c.07-.52.13-1,.18-1.55l3.33-26.8a.5.5,0,0,1,.49-.44h53.9a.51.51,0,0,1,.5.44l3.32,26.78v0c0,.52.1,1,.17,1.55a29,29,0,0,0,15.25,21.32l14.44,7.72a.5.5,0,0,1,.25.56A.51.51,0,0,1,278.33,407.88Zm-118.82-1H276.33l-12.68-6.78A30,30,0,0,1,247.88,378q-.1-.78-.18-1.59l-3.27-26.33h-53l-3.27,26.34c0,.52-.1,1.05-.18,1.58A30,30,0,0,1,172.2,400.1Z" style="fill:#263238"></path><polygon points="246.38 366.61 244.87 349.61 231.86 349.61 203.98 349.61 190.97 349.61 189.47 366.61 246.38 366.61" style="fill:#263238"></polygon><path d="M246.38,367.11H189.47a.51.51,0,0,1-.37-.16.52.52,0,0,1-.13-.39l1.5-17a.51.51,0,0,1,.5-.46h53.9a.5.5,0,0,1,.5.46l1.51,17a.56.56,0,0,1-.13.39A.52.52,0,0,1,246.38,367.11Zm-56.37-1h55.82l-1.42-16h-53Z" style="fill:#263238"></path><rect x="157.52" y="407.38" width="120.64" height="3.17" style="fill:#fff"></rect><path d="M278.16,411.05H157.52a.5.5,0,0,1-.5-.5v-3.17a.5.5,0,0,1,.5-.5H278.16a.5.5,0,0,1,.5.5v3.17A.5.5,0,0,1,278.16,411.05Zm-120.14-1H277.66v-2.17H158Z" style="fill:#263238"></path><path d="M236.21,389.58h-44a.5.5,0,0,1-.5-.5.5.5,0,0,1,.5-.5h44a.5.5,0,0,1,.5.5A.5.5,0,0,1,236.21,389.58Z" style="fill:#263238"></path><path d="M247.54,389.58H242.1a.51.51,0,0,1-.5-.5.5.5,0,0,1,.5-.5h5.44a.5.5,0,0,1,.5.5A.5.5,0,0,1,247.54,389.58Z" style="fill:#263238"></path><path d="M80.52,120.46h274.8a7.95,7.95,0,0,1,7.95,7.95V344.84a10.2,10.2,0,0,1-10.2,10.2H82.77a10.2,10.2,0,0,1-10.2-10.2V128.41A7.95,7.95,0,0,1,80.52,120.46Z" style="fill:#fff"></path><path d="M353.07,355.54H82.77a10.71,10.71,0,0,1-10.7-10.7V128.41A8.46,8.46,0,0,1,80.52,120h274.8a8.46,8.46,0,0,1,8.45,8.45V344.84A10.71,10.71,0,0,1,353.07,355.54ZM80.52,121a7.46,7.46,0,0,0-7.45,7.45V344.84a9.71,9.71,0,0,0,9.7,9.7h270.3a9.71,9.71,0,0,0,9.7-9.7V128.41a7.46,7.46,0,0,0-7.45-7.45Z" style="fill:#263238"></path><path d="M363.27,316.16V129a8.55,8.55,0,0,0-8.55-8.56H81.13A8.56,8.56,0,0,0,72.57,129V316.16Z" style="fill:#263238"></path><path d="M363.27,316.66H72.57a.5.5,0,0,1-.5-.5V129A9.06,9.06,0,0,1,81.13,120H354.72a9.06,9.06,0,0,1,9,9.06V316.16A.5.5,0,0,1,363.27,316.66Zm-290.2-1h289.7V129a8.07,8.07,0,0,0-8-8.06H81.13A8.07,8.07,0,0,0,73.07,129Z" style="fill:#263238"></path><rect x="85.65" y="129.68" width="264.53" height="186.48" style="fill:#60A5FA"></rect><path d="M350.19,316.66H85.65a.5.5,0,0,1-.5-.5V129.68a.51.51,0,0,1,.5-.5H350.19a.5.5,0,0,1,.5.5V316.16A.5.5,0,0,1,350.19,316.66Zm-264-1H349.69V130.18H86.15Z" style="fill:#263238"></path><path d="M119.38,142.16h169.2a6.41,6.41,0,0,1,6.41,6.41v10.72a0,0,0,0,1,0,0H113a0,0,0,0,1,0,0V148.56A6.41,6.41,0,0,1,119.38,142.16Z" style="fill:#263238"></path><path d="M295,159.79H113a.5.5,0,0,1-.5-.5V148.56a6.91,6.91,0,0,1,6.91-6.9h169.2a6.91,6.91,0,0,1,6.91,6.9v10.73A.51.51,0,0,1,295,159.79Zm-181.52-1h181V148.56a5.92,5.92,0,0,0-5.91-5.9H119.38a5.91,5.91,0,0,0-5.91,5.9Z" style="fill:#263238"></path><path d="M261.35,150.73a2.64,2.64,0,1,1-2.64-2.64A2.64,2.64,0,0,1,261.35,150.73Z" style="fill:#fff"></path><path d="M258.71,153.87a3.14,3.14,0,1,1,3.14-3.14A3.14,3.14,0,0,1,258.71,153.87Zm0-5.28a2.14,2.14,0,1,0,2.14,2.14A2.14,2.14,0,0,0,258.71,148.59Z" style="fill:#263238"></path><path d="M271.9,150.73a2.64,2.64,0,1,1-2.63-2.64A2.64,2.64,0,0,1,271.9,150.73Z" style="fill:#fff"></path><path d="M269.27,153.87a3.14,3.14,0,1,1,3.13-3.14A3.15,3.15,0,0,1,269.27,153.87Zm0-5.28a2.14,2.14,0,1,0,2.13,2.14A2.14,2.14,0,0,0,269.27,148.59Z" style="fill:#263238"></path><path d="M282.46,150.73a2.64,2.64,0,1,1-2.64-2.64A2.64,2.64,0,0,1,282.46,150.73Z" style="fill:#fff"></path><path d="M279.82,153.87a3.14,3.14,0,1,1,3.14-3.14A3.15,3.15,0,0,1,279.82,153.87Zm0-5.28a2.14,2.14,0,1,0,2.14,2.14A2.14,2.14,0,0,0,279.82,148.59Z" style="fill:#263238"></path><path d="M288.64,297H119.31a6.86,6.86,0,0,1-6.84-6.85V148.56a6.91,6.91,0,0,1,6.91-6.9h169.2a6.91,6.91,0,0,1,6.91,6.9V290.13A6.87,6.87,0,0,1,288.64,297ZM119.38,142.66a5.91,5.91,0,0,0-5.91,5.9V290.13a5.86,5.86,0,0,0,5.84,5.85H288.64a5.86,5.86,0,0,0,5.85-5.85V148.56a5.92,5.92,0,0,0-5.91-5.9Z" style="fill:#263238"></path><path d="M121.65,297.14a.12.12,0,0,1-.12-.12V155.4a.12.12,0,0,1,.12-.13.13.13,0,0,1,.13.13V297A.12.12,0,0,1,121.65,297.14Z" style="fill:#263238"></path><path d="M132.67,297.14a.12.12,0,0,1-.13-.12V155.4a.13.13,0,0,1,.13-.13.12.12,0,0,1,.12.13V297A.12.12,0,0,1,132.67,297.14Z" style="fill:#263238"></path><path d="M143.69,297.14a.12.12,0,0,1-.13-.12V155.4a.13.13,0,0,1,.13-.13.12.12,0,0,1,.12.13V297A.12.12,0,0,1,143.69,297.14Z" style="fill:#263238"></path><path d="M154.71,297.14a.12.12,0,0,1-.13-.12V155.4a.13.13,0,0,1,.13-.13.13.13,0,0,1,.12.13V297A.12.12,0,0,1,154.71,297.14Z" style="fill:#263238"></path><path d="M165.72,297.14a.12.12,0,0,1-.12-.12V155.4a.13.13,0,0,1,.12-.13.13.13,0,0,1,.13.13V297A.12.12,0,0,1,165.72,297.14Z" style="fill:#263238"></path><path d="M176.74,297.14a.12.12,0,0,1-.12-.12V155.4a.12.12,0,0,1,.12-.13.13.13,0,0,1,.13.13V297A.12.12,0,0,1,176.74,297.14Z" style="fill:#263238"></path><path d="M187.76,297.14a.12.12,0,0,1-.12-.12V155.4a.12.12,0,0,1,.12-.13.13.13,0,0,1,.13.13V297A.12.12,0,0,1,187.76,297.14Z" style="fill:#263238"></path><path d="M198.78,297.14a.12.12,0,0,1-.13-.12V155.4a.13.13,0,0,1,.13-.13.12.12,0,0,1,.12.13V297A.12.12,0,0,1,198.78,297.14Z" style="fill:#263238"></path><path d="M209.8,297.14a.12.12,0,0,1-.13-.12V155.4a.13.13,0,0,1,.13-.13.12.12,0,0,1,.12.13V297A.12.12,0,0,1,209.8,297.14Z" style="fill:#263238"></path><path d="M220.82,297.14a.12.12,0,0,1-.13-.12V155.4a.13.13,0,0,1,.13-.13.12.12,0,0,1,.12.13V297A.12.12,0,0,1,220.82,297.14Z" style="fill:#263238"></path><path d="M231.83,297.14a.12.12,0,0,1-.12-.12V155.4a.13.13,0,0,1,.12-.13.13.13,0,0,1,.13.13V297A.12.12,0,0,1,231.83,297.14Z" style="fill:#263238"></path><path d="M242.85,297.14a.12.12,0,0,1-.12-.12V155.4a.12.12,0,0,1,.12-.13.13.13,0,0,1,.13.13V297A.12.12,0,0,1,242.85,297.14Z" style="fill:#263238"></path><path d="M253.87,297.14a.12.12,0,0,1-.12-.12V155.4a.12.12,0,0,1,.12-.13.13.13,0,0,1,.13.13V297A.12.12,0,0,1,253.87,297.14Z" style="fill:#263238"></path><path d="M264.89,297.14a.12.12,0,0,1-.13-.12V155.4a.13.13,0,0,1,.13-.13.12.12,0,0,1,.12.13V297A.12.12,0,0,1,264.89,297.14Z" style="fill:#263238"></path><path d="M275.91,297.14a.12.12,0,0,1-.13-.12V155.4a.13.13,0,0,1,.13-.13.12.12,0,0,1,.12.13V297A.12.12,0,0,1,275.91,297.14Z" style="fill:#263238"></path><path d="M286.93,297.14a.12.12,0,0,1-.13-.12V155.4a.13.13,0,0,1,.13-.13.12.12,0,0,1,.12.13V297A.12.12,0,0,1,286.93,297.14Z" style="fill:#263238"></path><path d="M295.35,169.81H113.22a.13.13,0,0,1-.12-.13.13.13,0,0,1,.12-.12H295.35a.13.13,0,0,1,.13.12A.13.13,0,0,1,295.35,169.81Z" style="fill:#263238"></path><path d="M295.35,183.17H113.22a.13.13,0,0,1-.12-.13.12.12,0,0,1,.12-.12H295.35a.12.12,0,0,1,.13.12A.13.13,0,0,1,295.35,183.17Z" style="fill:#263238"></path><path d="M295.35,196.52H113.22a.13.13,0,0,1-.12-.12.13.13,0,0,1,.12-.13H295.35a.13.13,0,0,1,.13.13A.13.13,0,0,1,295.35,196.52Z" style="fill:#263238"></path><path d="M295.35,209.88H113.22a.13.13,0,0,1-.12-.13.12.12,0,0,1,.12-.12H295.35a.12.12,0,0,1,.13.12A.13.13,0,0,1,295.35,209.88Z" style="fill:#263238"></path><path d="M295.35,223.23H113.22a.12.12,0,0,1-.12-.12.13.13,0,0,1,.12-.13H295.35a.13.13,0,0,1,.13.13A.12.12,0,0,1,295.35,223.23Z" style="fill:#263238"></path><path d="M295.35,236.59H113.22a.13.13,0,0,1-.12-.13.13.13,0,0,1,.12-.12H295.35a.13.13,0,0,1,.13.12A.13.13,0,0,1,295.35,236.59Z" style="fill:#263238"></path><path d="M295.35,250H113.22a.13.13,0,0,1-.12-.13.12.12,0,0,1,.12-.12H295.35a.12.12,0,0,1,.13.12A.13.13,0,0,1,295.35,250Z" style="fill:#263238"></path><path d="M295.35,263.3H113.22a.12.12,0,0,1-.12-.12.13.13,0,0,1,.12-.13H295.35a.13.13,0,0,1,.13.13A.12.12,0,0,1,295.35,263.3Z" style="fill:#263238"></path><path d="M295.35,276.66H113.22a.13.13,0,0,1-.12-.13.12.12,0,0,1,.12-.12H295.35a.12.12,0,0,1,.13.12A.13.13,0,0,1,295.35,276.66Z" style="fill:#263238"></path><path d="M295.35,290H113.22a.12.12,0,0,1-.12-.12.13.13,0,0,1,.12-.13H295.35a.13.13,0,0,1,.13.13A.12.12,0,0,1,295.35,290Z" style="fill:#263238"></path></g><g id="freepik--character-2--inject-6"><path d="M372.88,209.5s-4.63,4-4.63,4.79-1.32,9.43-1.32,9.43l6.28,2.64,2.65-4.46s1.32-1.82,2.31-3.47a16.55,16.55,0,0,1,3.31-3.48l-2.48-.49-3,3.14-.33-4.46Z" style="fill:#fff"></path><path d="M373.21,226.86a.43.43,0,0,1-.19,0l-6.28-2.64a.5.5,0,0,1-.3-.54c.53-3.44,1.31-8.77,1.31-9.35,0-.87,2.62-3.29,4.81-5.17a.5.5,0,0,1,.37-.12.53.53,0,0,1,.35.19l2.81,3.64a.52.52,0,0,1,.1.27l.25,3.33,2.2-2.32a.48.48,0,0,1,.46-.14l2.48.49a.5.5,0,0,1,.21.89,16.06,16.06,0,0,0-3.19,3.33c-1,1.66-2.32,3.49-2.34,3.51l-2.62,4.43A.51.51,0,0,1,373.21,226.86Zm-5.73-3.45,5.52,2.32,2.43-4.09s1.35-1.86,2.31-3.47a14.48,14.48,0,0,1,2.62-2.93l-1.19-.24-2.78,2.94a.49.49,0,0,1-.53.13.52.52,0,0,1-.34-.43l-.31-4.32-2.4-3.1c-1.92,1.68-3.92,3.63-4.06,4.12C368.75,215.06,367.76,221.59,367.48,223.41Z" style="fill:#263238"></path><path d="M366.93,223.72s-9.09,10.58-11.9,14.21-10.75,11.74-13.56,16.87-2.15,11.41.33,13.39,12.23-2.31,16.37-10.75,15-31.08,15-31.08Z" style="fill:#fff"></path><path d="M343.53,269.17a3.22,3.22,0,0,1-2-.59c-2.67-2.14-3.44-8.59-.46-14,1.93-3.52,6.2-8.37,9.63-12.28,1.65-1.87,3.07-3.49,4-4.65,2.79-3.61,11.83-14.13,11.92-14.24a.49.49,0,0,1,.57-.13l6.29,2.64a.51.51,0,0,1,.27.29.48.48,0,0,1,0,.39c-.11.23-11,22.75-15,31.08-3,6.12-9,10.32-13.41,11.3A7.7,7.7,0,0,1,343.53,269.17Zm23.54-44.85c-1.45,1.69-9.13,10.66-11.65,13.92-.92,1.19-2.35,2.82-4,4.7-3.4,3.87-7.63,8.68-9.5,12.1-2.66,4.85-2.07,11,.2,12.76A3.71,3.71,0,0,0,345,268c4.06-.91,9.9-5,12.73-10.77,3.75-7.66,13.22-27.3,14.81-30.6Z" style="fill:#263238"></path><path d="M377.84,190.16a64.57,64.57,0,0,1-2.31,6.94c-1,2.15-5.79,4-5.29,4.63a38.23,38.23,0,0,0,3,2.81s.17,10.91,1.66,11.24,6.61-.83,6.61-.83l-1,7.61,12.73-1.82L394.37,210s5.63-4.29,5.63-8.43-6.62-12.4-12.9-14.05S379.66,187,377.84,190.16Z" style="fill:#fff"></path><path d="M380.49,223.06a.5.5,0,0,1-.35-.14.48.48,0,0,1-.15-.42l.9-6.91c-1.5.32-4.87,1-6.13.68-1.53-.34-2-6.39-2-11.5a34.2,34.2,0,0,1-2.88-2.74.68.68,0,0,1-.13-.53c.09-.5.66-.88,1.94-1.69s2.93-1.86,3.42-2.92a62.32,62.32,0,0,0,2.29-6.87.61.61,0,0,1,.05-.12c1.95-3.36,3.38-4.57,9.82-2.87,6.28,1.65,13.27,10.07,13.27,14.53,0,4-4.67,7.91-5.65,8.7l-1.14,10.53a.51.51,0,0,1-.42.45l-12.73,1.81Zm1-8.61a.55.55,0,0,1,.34.13.52.52,0,0,1,.16.44l-.91,6.95,11.69-1.67,1.12-10.36a.47.47,0,0,1,.19-.34c.05,0,5.43-4.2,5.43-8,0-3.68-6.32-11.93-12.53-13.57-6.05-1.59-7-.5-8.66,2.36a62.57,62.57,0,0,1-2.33,7c-.61,1.33-2.38,2.45-3.8,3.34a13.82,13.82,0,0,0-1.39,1c.58.64,2.14,2,2.75,2.55a.48.48,0,0,1,.17.37c.08,4.8.59,10.28,1.3,10.78,1.1.23,5-.53,6.36-.84Z" style="fill:#263238"></path><path d="M377.94,197.76c-.14.82-.53,1.44-.88,1.39s-.52-.77-.38-1.6.52-1.45.87-1.39S378.07,196.93,377.94,197.76Z" style="fill:#263238"></path><path d="M379.22,195.68a.5.5,0,0,1-.49-.4c-.1-.49-.26-.61-.3-.62a.2.2,0,0,0-.15.09.48.48,0,0,1-.5.48.52.52,0,0,1-.5-.53,1.12,1.12,0,0,1,1-1c.26,0,1.12,0,1.4,1.41a.5.5,0,0,1-.39.59Z" style="fill:#263238"></path><path d="M374.19,206.86c-.18,0-.28,0-.32,0a.51.51,0,0,1-.41-.58.52.52,0,0,1,.57-.41,3.65,3.65,0,0,0,2.08-.58.5.5,0,1,1,.48.87A5,5,0,0,1,374.19,206.86Z" style="fill:#263238"></path><path d="M384.79,178.91s2.48-4.46-2.15-3.47-10.92,10.09-8.6,14.22,5.46,2.48,5.46,2.48a29.88,29.88,0,0,0,2.64,3.31,34.63,34.63,0,0,0,2.65,2.31s1.15,9.92,3.14,12.57,4.3,3.47,6.11,2.48,5-3.31,5-3.31,7.94-5.95,8.44-11.24.16-8.6-2.82-12.24a19.52,19.52,0,0,0-7.43-5.29s1.32-4.46-2.65-4.79S384.79,178.91,384.79,178.91Z" style="fill:#263238"></path><path d="M392.48,213.71c-1.67,0-3.45-1.08-5-3.08-1.91-2.54-3-11.12-3.22-12.61a31.69,31.69,0,0,1-2.52-2.22,28.59,28.59,0,0,1-2.48-3.05c-1,.32-3.69.75-5.71-2.85-.88-1.58-.71-3.9.49-6.56,1.62-3.58,5.22-7.7,8.44-8.39,1.52-.32,2.55-.13,3.07.58a2.64,2.64,0,0,1,.17,2.3c2-1,5.81-2.64,8.81-2.39a3.41,3.41,0,0,1,2.69,1.39,4.94,4.94,0,0,1,.5,3.6,19.83,19.83,0,0,1,7.24,5.28c3.11,3.8,3.43,7.22,2.92,12.59s-8.3,11.35-8.63,11.6a57,57,0,0,1-5,3.34A3.64,3.64,0,0,1,392.48,213.71Zm-13-22.07a.54.54,0,0,1,.41.21,28.16,28.16,0,0,0,2.58,3.24c1.13,1.12,2.59,2.26,2.6,2.28a.45.45,0,0,1,.19.33c0,.1,1.17,9.82,3.05,12.33,1.77,2.36,3.82,3.24,5.47,2.34s4.88-3.25,4.91-3.27,7.76-5.88,8.23-10.89.19-8.34-2.7-11.87A19.26,19.26,0,0,0,397,181.2a.5.5,0,0,1-.3-.61s.56-2-.27-3.19a2.41,2.41,0,0,0-1.94-1c-3.76-.32-9.41,2.87-9.47,2.91a.5.5,0,0,1-.68-.68c.32-.59.86-2,.45-2.55-.26-.35-1-.42-2.06-.19-2.56.55-6,4.06-7.74,7.83-1.06,2.35-1.25,4.36-.52,5.66,2,3.66,4.67,2.34,4.78,2.28A.53.53,0,0,1,379.5,191.64Z" style="fill:#263238"></path><path d="M382.47,199.41s3.31-4.29,4.8-2.81.16,7-1,8.77-4,.33-4.13-.5" style="fill:#fff"></path><path d="M384.64,206.73a3.21,3.21,0,0,1-.6-.06c-1-.19-2.23-.92-2.39-1.7a.5.5,0,0,1,.39-.59.49.49,0,0,1,.59.39,2.56,2.56,0,0,0,1.7.94,1.41,1.41,0,0,0,1.52-.61c1.1-1.72,2.29-6.92,1.06-8.14a.54.54,0,0,0-.46-.17c-1,.07-2.74,1.83-3.58,2.93a.5.5,0,0,1-.7.09.51.51,0,0,1-.1-.7c.26-.33,2.51-3.2,4.32-3.32a1.6,1.6,0,0,1,1.23.46c1.75,1.75.24,7.56-.92,9.38A2.35,2.35,0,0,1,384.64,206.73Z" style="fill:#263238"></path><polygon points="373.54 227.52 378.67 221.57 396.64 219.66 398.01 225.37 373.54 227.52" style="fill:#fff"></polygon><path d="M373.54,228a.49.49,0,0,1-.44-.27.5.5,0,0,1,.06-.56l5.13-5.95a.47.47,0,0,1,.33-.17l18-1.91a.51.51,0,0,1,.54.38l1.37,5.71a.53.53,0,0,1-.08.41.5.5,0,0,1-.36.21L373.59,228Zm5.38-6-4.2,4.87,22.67-2-1.13-4.72Z" style="fill:#263238"></path><path d="M406.23,293.07,404,289.86l-.12,15.49s4.68-4.45,4.9-6.9S406.23,293.07,406.23,293.07Z" style="fill:#fff"></path><path d="M403.83,305.85a.43.43,0,0,1-.19,0,.5.5,0,0,1-.31-.46l.12-15.49a.53.53,0,0,1,.35-.48.52.52,0,0,1,.56.19l2.26,3.19c.3.32,2.84,3.19,2.61,5.74s-4.56,6.75-5.05,7.22A.51.51,0,0,1,403.83,305.85Zm.61-14.44-.1,12.73c1.51-1.57,3.76-4.21,3.9-5.73.2-2.2-2.35-5-2.37-5a.1.1,0,0,1,0-.05Z" style="fill:#263238"></path><path d="M412.56,230s18.85,38.35,20.17,41-1.49,3.64-1.49,3.64l-22.51,23.81-2.5-5.38,9.64-23.56-8.77-14S411.9,231.49,412.56,230Z" style="fill:#fff"></path><path d="M408.73,299h-.08a.52.52,0,0,1-.37-.29l-2.5-5.38a.5.5,0,0,1,0-.4l9.54-23.32-8.63-13.84a.49.49,0,0,1-.07-.36c.5-2.46,4.83-24.07,5.49-25.56a.5.5,0,0,1,.45-.3.54.54,0,0,1,.46.28c.19.38,18.86,38.38,20.17,41a3,3,0,0,1,.22,2.52,3.55,3.55,0,0,1-1.87,1.76L409.1,298.8A.51.51,0,0,1,408.73,299Zm-2-5.89,2.1,4.51,22-23.28a.47.47,0,0,1,.19-.12,2.63,2.63,0,0,0,1.4-1.25,2,2,0,0,0-.19-1.7c-1.17-2.35-16.43-33.4-19.6-39.84-.94,3.83-3.39,15.71-5.05,24l8.66,13.89a.48.48,0,0,1,0,.45Z" style="fill:#263238"></path><polygon points="412.79 242.31 415.87 269.51 410.97 261.18 412.79 242.31" style="fill:#263238"></polygon><path d="M415.87,270a.5.5,0,0,1-.43-.24l-4.9-8.34a.45.45,0,0,1-.07-.3l1.82-18.87a.5.5,0,0,1,.49-.45h0a.5.5,0,0,1,.49.45l3.08,27.2a.5.5,0,0,1-.33.53Zm-4.39-8.94,3.63,6.16-2.28-20.12Z" style="fill:#263238"></path><path d="M361.52,291.73s0,.42,0,1.19c-.11,8.07-.65,55,.73,71.79,1.52,18.37,4.36,45.75,4.36,45.75s-1.89.57-1.89,1.53a34.2,34.2,0,0,1-.57,3.83,56.09,56.09,0,0,1-7,3.25c-2.84,1-5.12,2.87-3.79,3.83s7.58,1.72,13.84,2.49,11,1,11.76.19.57-5,.38-6.51.19-4.59,0-7.08-1.14-4.59-1.14-6.13.95-47.47.95-47.47L382,341.16l2.65-10.91s1.52,28.14,2.09,29.48S397,411.4,397,411.4l-1.14,1.91.19,2.49a20.93,20.93,0,0,1-4.74,3.44c-2.66,1.34-5.12,2.11-3.23,3.64s9.67,1.92,11.38,2.11a67.23,67.23,0,0,0,8.53.19c.76-.19,1.9,0,2.09-2.68a21.38,21.38,0,0,0-.76-6.32,42,42,0,0,1-.95-5.93,38.89,38.89,0,0,0-.76-5L404.71,355l1-49.39a71.91,71.91,0,0,0-.57-8.62c-.57-4-1.14-7.08-1.14-7.08l-41.71-1.72" style="fill:#263238"></path><path d="M375.8,426.57a74,74,0,0,1-8.69-.69c-6.5-.79-12.64-1.54-14.07-2.57a1.31,1.31,0,0,1-.58-1.29c.21-1.38,2.48-2.74,4.5-3.42a52.39,52.39,0,0,0,6.73-3.11,29.17,29.17,0,0,0,.52-3.5c0-1,1.18-1.61,1.85-1.87-.35-3.43-2.92-28.39-4.32-45.37-1.37-16.68-.85-62.77-.73-71.84v-1.19a.51.51,0,0,1,.5-.49h0a.5.5,0,0,1,.49.51v1.19c-.12,9.06-.64,55.1.73,71.74,1.5,18.16,4.33,45.46,4.36,45.74a.51.51,0,0,1-.35.53c-.63.19-1.54.67-1.54,1.05a34.92,34.92,0,0,1-.58,3.93.49.49,0,0,1-.25.33,54.32,54.32,0,0,1-7.1,3.3c-2.17.73-3.73,1.94-3.83,2.62,0,.08,0,.19.17.33,1.23.88,7.81,1.68,13.61,2.39,8.22,1,11,.69,11.34.34s.52-3.82.24-6.1a21.3,21.3,0,0,1,0-3.13,37.56,37.56,0,0,0,0-4,20.83,20.83,0,0,0-.65-3.44,11.29,11.29,0,0,1-.49-2.73c0-1.52.91-45.6.95-47.48l2.85-17.3,2.66-10.95a.5.5,0,0,1,1,.09c.61,11.19,1.65,28.23,2.05,29.32.57,1.34,9.29,46.6,10.29,51.76a.53.53,0,0,1-.06.35l-1.06,1.78.18,2.33a.52.52,0,0,1-.15.39,20.67,20.67,0,0,1-4.87,3.54l-1.14.56c-1.13.54-2.42,1.16-2.47,1.6,0,.15.16.38.48.64,1.47,1.19,7.35,1.68,9.87,1.89l1.25.11a69.78,69.78,0,0,0,8.35.2l.35-.07c.63-.11,1.22-.21,1.36-2.16a20.38,20.38,0,0,0-.72-6l0-.12a43.85,43.85,0,0,1-1-6,40.15,40.15,0,0,0-.74-4.91L404.21,355l1-49.42a73.37,73.37,0,0,0-.56-8.54c-.45-3.14-.9-5.72-1.07-6.67l-41.31-1.7a.5.5,0,1,1,0-1L404,289.36a.51.51,0,0,1,.48.41s.57,3.12,1.14,7.1a74.49,74.49,0,0,1,.57,8.69l-1,49.4,2.86,50.28a37,37,0,0,1,.76,5,41.22,41.22,0,0,0,.94,5.85l0,.12a21.71,21.71,0,0,1,.75,6.35c-.18,2.52-1.18,2.9-2.19,3.08l-.27.05a65.35,65.35,0,0,1-8.71-.18l-1.23-.11c-4.52-.37-8.9-.88-10.41-2.1a1.77,1.77,0,0,1-.85-1.54c.12-1,1.41-1.61,3-2.39l1.12-.54a20,20,0,0,0,4.45-3.2l-.17-2.25a.53.53,0,0,1,.07-.3l1-1.75c-2.7-14-9.7-50.09-10.19-51.38s-1.49-18.18-1.94-26.26l-1.85,7.62-2.84,17.19c0,.39-.94,45.88-.94,47.39a11,11,0,0,0,.46,2.49,20.64,20.64,0,0,1,.67,3.6,37.2,37.2,0,0,1,0,4.09,22.32,22.32,0,0,0,0,3c0,.06.63,5.76-.52,6.92C379.09,426.13,378.65,426.57,375.8,426.57Z" style="fill:#263238"></path><path d="M343.78,258.77,355.69,245s8.43-14.38,9.09-15.7,8.76-1.82,8.76-1.82L398,225.37s14.22,3.47,14.55,4.63-.64,24.92-1.14,28.22-6.46,34.27-7,36.09-7.44,2.81-19,3.47-21.5-3.47-22.32-4.13-1.66-1.32-1.49-2.48,2.65-29.26,2.65-29.26-12.57,8.76-15.55,9.42-8.1-2.31-8.76-6.45a7,7,0,0,1,1.82-6.28" style="fill:#fff"></path><path d="M382.89,298.36c-10.58,0-19.19-3.61-20.07-4.32s-1.88-1.5-1.68-2.94c.15-1,2.1-23,2.55-28.18-2.93,2-12.23,8.32-14.84,8.9a7.75,7.75,0,0,1-5.64-1.5,8.32,8.32,0,0,1-3.72-5.36,7.42,7.42,0,0,1,2-6.74.5.5,0,0,1,.66.76,6.43,6.43,0,0,0-1.65,5.82,7.31,7.31,0,0,0,3.29,4.69,6.86,6.86,0,0,0,4.87,1.35c2.27-.5,11-6.33,15.36-9.34a.52.52,0,0,1,.54,0,.51.51,0,0,1,.24.48c-.1,1.15-2.48,28.13-2.65,29.29-.11.83.42,1.31,1.31,2,.5.4,10.17,4.69,22,4s18.18-1.72,18.56-3.1c.48-1.78,6.46-32.76,6.95-36s1.44-26.73,1.15-28c-.56-.61-7.61-2.67-14.11-4.25L373.59,228c-4.21.26-8,1-8.36,1.54-.66,1.32-8.77,15.15-9.11,15.74l-12,13.79a.5.5,0,1,1-.75-.65l11.9-13.72c0-.07,8.38-14.31,9-15.61s6.66-1.94,9.18-2.09L398,224.87h.16c6.62,1.62,14.57,3.79,14.91,5,.4,1.41-.68,25.49-1.12,28.44-.5,3.28-6.49,34.36-7,36.14s-3.94,3-19.46,3.84C384.6,298.33,383.74,298.36,382.89,298.36Z" style="fill:#263238"></path><path d="M384.36,269.75a.51.51,0,0,1-.31-.11.49.49,0,0,1-.08-.7c4.51-5.75,14.47-25.22,14.57-25.42a.51.51,0,0,1,.68-.21.49.49,0,0,1,.21.67c-.41.8-10.1,19.75-14.68,25.58A.49.49,0,0,1,384.36,269.75Z" style="fill:#263238"></path><path d="M389.38,266.4a.54.54,0,0,1-.25-.06.5.5,0,0,1-.19-.68l5.43-9.62a.51.51,0,1,1,.88.5l-5.44,9.61A.5.5,0,0,1,389.38,266.4Z" style="fill:#263238"></path><path d="M364.29,262.41a.5.5,0,0,1-.42-.22.5.5,0,0,1,.07-.64l11.24-10.91a.5.5,0,0,1,.71,0,.5.5,0,0,1,0,.7l-9.28,9,7.41-3.21a.5.5,0,0,1,.39.92l-9.92,4.3A.65.65,0,0,1,364.29,262.41Z" style="fill:#263238"></path></g><g id="freepik--speech-bubble--inject-6"><path d="M317.52,60.27h-71.8a6.5,6.5,0,0,0-6.49,6.49v36.81a6.5,6.5,0,0,0,6.49,6.49h12.67l-9.07,21.53,23.28-21.53h44.92a6.5,6.5,0,0,0,6.49-6.49V66.76A6.5,6.5,0,0,0,317.52,60.27Z" style="fill:#263238"></path><path d="M249.32,132.09A.47.47,0,0,1,249,132a.49.49,0,0,1-.18-.6l8.78-20.84H245.72a7,7,0,0,1-7-7V66.76a7,7,0,0,1,7-7h71.8a7,7,0,0,1,7,7v36.81a7,7,0,0,1-7,7H272.8L249.66,132A.47.47,0,0,1,249.32,132.09Zm-3.6-71.32a6,6,0,0,0-6,6v36.81a6,6,0,0,0,6,6h12.67a.52.52,0,0,1,.42.23.49.49,0,0,1,0,.47l-8.17,19.4,21.58-20a.51.51,0,0,1,.34-.13h44.92a6,6,0,0,0,6-6V66.76a6,6,0,0,0-6-6Z" style="fill:#263238"></path><path d="M314.51,58.12h-71.8a6.5,6.5,0,0,0-6.49,6.49v36.81a6.5,6.5,0,0,0,6.49,6.49h12.67l-9.07,21.53,23.28-21.53h44.92a6.5,6.5,0,0,0,6.49-6.49V64.61A6.5,6.5,0,0,0,314.51,58.12Z" style="fill:#fff"></path><path d="M246.31,129.94a.52.52,0,0,1-.29-.09.5.5,0,0,1-.17-.6l8.77-20.84H242.71a7,7,0,0,1-7-7V64.61a7,7,0,0,1,7-7h71.8a7,7,0,0,1,7,7v36.81a7,7,0,0,1-7,7H269.78l-23.13,21.4A.48.48,0,0,1,246.31,129.94Zm-3.6-71.32a6,6,0,0,0-6,6v36.81a6,6,0,0,0,6,6h12.67a.5.5,0,0,1,.46.69l-8.17,19.4,21.58-20a.51.51,0,0,1,.34-.13h44.92a6,6,0,0,0,6-6V64.61a6,6,0,0,0-6-6Z" style="fill:#263238"></path><circle cx="262.39" cy="83.01" r="3.36" style="fill:#263238"></circle><circle cx="278.61" cy="83.01" r="3.36" style="fill:#263238"></circle><circle cx="294.83" cy="83.01" r="3.36" style="fill:#263238"></circle></g></svg>
