<svg xmlns="http://www.w3.org/2000/svg" viewBox="0 0 500 500"><g id="freepik--Floor--inject-513"><path d="M406.61,265.87c-87.06-50.26-227.75-50.26-314.24,0s-86,131.76,1,182,227.76,50.26,314.26,0S493.67,316.14,406.61,265.87Z" style="fill:#f5f5f5"></path></g><g id="freepik--Shadows--inject-513"><path d="M276.65,247.58l-9.48-5.47a6.65,6.65,0,0,0-6.63,0l-64.22,37.08c-13.1-1.94-27.54,0-37.75,6S145,299.36,148.31,306.9l-42.23,24.39a2.84,2.84,0,0,0,0,4.92l9.48,5.47a6.6,6.6,0,0,0,6.63,0L161.54,319c15.56,7.45,38.59,7,53.08-1.45s15.24-21.66,2.51-30.64l59.52-34.36A2.85,2.85,0,0,0,276.65,247.58Z" style="fill:#e6e6e6"></path><path d="M67.05,377.91c-2.58,1.49-2.59,3.9,0,5.39l4.39,2.62a10.23,10.23,0,0,0,9.3,0l115.44-66.65c2.57-1.49,2.59-3.9,0-5.39l-4.39-2.62a10.29,10.29,0,0,0-9.3,0Z" style="fill:#e6e6e6"></path><path d="M227,290.88c-1.71,1-1.72,2.58,0,3.57l2.9,1.73a6.82,6.82,0,0,0,6.16,0l76.41-44.12c1.7-1,1.71-2.58,0-3.56l-2.91-1.73a6.74,6.74,0,0,0-6.15,0Z" style="fill:#e6e6e6"></path><path d="M349.18,400.06c-18.39-10.61-48.11-10.61-66.38,0s-18.18,27.84.21,38.46,48.12,10.62,66.39,0S367.58,410.68,349.18,400.06Z" style="fill:#e6e6e6"></path><path d="M405.32,312.33c-18.39-10.62-48.11-10.62-66.39,0s-18.17,27.83.22,38.45,48.11,10.62,66.39,0S423.71,323,405.32,312.33Z" style="fill:#e6e6e6"></path><path d="M231,406.81c-18.39-10.62-48.11-10.62-66.38,0s-18.18,27.83.21,38.45,48.12,10.62,66.39,0S249.44,417.43,231,406.81Z" style="fill:#e6e6e6"></path></g><g id="freepik--Windows--inject-513"><polygon points="336.51 88.15 340.43 85.88 381.87 109.71 381.87 114.24 336.51 88.15" style="fill:#f5f5f5"></polygon><polygon points="336.51 88.15 336.51 88.15 336.51 88.15 381.87 114.24 381.87 119.42 336.5 93.36 336.51 88.15" style="fill:#e0e0e0"></polygon><rect x="359.19" y="75.03" height="52.33" transform="translate(92.38 362.1) rotate(-60.09)" style="fill:#e0e0e0"></rect><polygon points="405.56 127.88 409.48 125.6 450.92 149.43 450.92 153.97 405.56 127.88" style="fill:#f5f5f5"></polygon><polygon points="405.56 127.88 405.56 127.88 405.56 127.88 450.92 153.97 450.92 159.15 405.55 133.08 405.56 127.88" style="fill:#e0e0e0"></polygon><rect x="428.24" y="114.76" height="52.33" transform="translate(92.57 441.87) rotate(-60.09)" style="fill:#e0e0e0"></rect><polygon points="336.73 44.6 340.65 42.32 340.42 159.66 336.5 161.94 336.73 44.6" style="fill:#f0f0f0"></polygon><polygon points="336.5 161.94 340.42 159.66 385.56 185.57 381.64 187.85 336.5 161.94" style="fill:#f5f5f5"></polygon><path d="M332.23,36.81l54.16,31.12-.25,127.71L332,164.52Zm49.41,151,.23-117.34L336.73,44.6l-.23,117.34,45.14,25.91" style="fill:#e0e0e0"></path><polygon points="332.23 36.81 336.15 34.53 390.32 65.65 386.39 67.93 332.23 36.81" style="fill:#f5f5f5"></polygon><polygon points="386.39 67.93 390.32 65.65 390.06 193.36 386.13 195.64 386.39 67.93" style="fill:#f0f0f0"></polygon><polygon points="405.78 84.33 409.7 82.05 409.47 199.39 405.55 201.66 405.78 84.33" style="fill:#f0f0f0"></polygon><polygon points="405.55 201.66 409.47 199.39 454.61 225.3 450.69 227.57 405.55 201.66" style="fill:#f5f5f5"></polygon><path d="M401.28,76.54l54.16,31.12-.26,127.7L401,204.24Zm49.41,151,.23-117.33L405.78,84.32l-.23,117.34,45.14,25.91" style="fill:#e0e0e0"></path><polygon points="401.28 76.54 405.2 74.26 459.37 105.38 455.44 107.66 401.28 76.54" style="fill:#f5f5f5"></polygon><polygon points="455.44 107.66 459.37 105.38 459.11 233.08 455.19 235.36 455.44 107.66" style="fill:#f0f0f0"></polygon></g><g id="freepik--Screens--inject-513"><path d="M185.17,311.83v8.09a1.43,1.43,0,0,0,2.85,0v-8.09Z" style="fill:#BA68C8"></path><path d="M188,273.39a1.43,1.43,0,1,0-2.85,0v38.44H188Z" style="fill:#263238"></path><path d="M191.46,270.66a1.42,1.42,0,0,0-1.91,2.11l25.56,23.08,2-2Z" style="fill:#263238"></path><path d="M221.66,297.94l-4.54-4.1-2,2,4.65,4.19a1.39,1.39,0,0,0,1,.37,1.42,1.42,0,0,0,.95-2.47Z" style="fill:#BA68C8"></path><path d="M151.53,297.94a1.42,1.42,0,0,0,.95,2.47,1.39,1.39,0,0,0,1-.37l4.65-4.19-2-2Z" style="fill:#BA68C8"></path><path d="M183.74,270.76a1.42,1.42,0,0,0-2-.1l-25.66,23.18,2,2,25.56-23.08A1.42,1.42,0,0,0,183.74,270.76Z" style="fill:#263238"></path><path d="M195,269.82H178.22v4.84c0,1.25.84,2.49,2.48,3.43a13,13,0,0,0,11.83,0c1.63-.94,2.44-2.18,2.43-3.43h0Z" style="fill:#37474f"></path><path d="M192.49,266.39c3.28,1.89,3.3,5,0,6.85a13,13,0,0,1-11.83,0c-3.28-1.89-3.3-5,0-6.85A13,13,0,0,1,192.49,266.39Z" style="fill:#455a64"></path><path d="M184.23,92.62V269.3h0a1.18,1.18,0,0,0,.69,1,3.67,3.67,0,0,0,3.35,0,1.14,1.14,0,0,0,.69-1V92.62Z" style="fill:#263238"></path><polygon points="109.16 106.42 109.16 258.48 262.67 169.85 262.67 17.13 109.16 106.42" style="fill:#455a64"></polygon><polygon points="114.84 109.69 256.98 27.02 256.98 166.56 114.84 248.63 114.84 109.69" style="fill:#fafafa"></polygon><path d="M113.49,104a9.47,9.47,0,0,1,4.29,7.45c0,2.73-1.94,3.84-4.32,2.46a9.44,9.44,0,0,1-4.3-7.44C109.17,103.68,111.1,102.58,113.49,104Z" style="fill:#263238"></path><path d="M272.16,21.7a1.48,1.48,0,0,0,0-.21v-.21l0-.21a1.46,1.46,0,0,0,0-.22h0l0-.21c0-.07,0-.15-.05-.22s0-.06,0-.08v0s0-.07,0-.1l-.06-.23c0-.05,0-.11-.05-.16v-.07c0-.07-.05-.14-.07-.22s-.05-.14-.08-.22v-.07l-.06-.14a1.8,1.8,0,0,0-.08-.21,1,1,0,0,0-.07-.15v-.05l-.09-.21a2.4,2.4,0,0,1-.11-.23l0,0,0-.05-.1-.18-.12-.22-.06-.11,0-.05-.12-.19-.17-.27,0-.05-.27-.38h0a2.35,2.35,0,0,1-.19-.25c-.06-.06-.11-.13-.16-.19h0l-.17-.2-.16-.18,0,0,0,0-.12-.13-.18-.18-.06-.05,0,0-.09-.08-.19-.17-.09-.07,0,0-.07,0a1.33,1.33,0,0,0-.19-.14l-.13-.1,0,0,0,0-.19-.12-.18-.11,0,0-.14-.08-.18-.09-.11-.06h-.06l-.17-.08-.18-.06h0l-.12,0-.18-.05-.08,0h-.09l-.19,0h-.62a1.9,1.9,0,0,0-.25,0h0l-.06,0-.24.06h0a1.44,1.44,0,0,0-.33.16l-154.38,89.5a1.66,1.66,0,0,1,.33-.15l.26-.08h0a1.75,1.75,0,0,1,.32,0h.44c.12,0,.24,0,.36.06h0l.38.1h0c.13,0,.27.1.41.17h0c.14.06.28.14.43.22l.43.28h0c.13.1.26.19.39.3l0,0,.36.32.05,0,.35.36,0,0,.37.41h0l.35.45h0c.11.14.21.29.3.43l.18.28c0,.08.1.15.14.23l.06.11.22.41,0,0c.09.17.17.33.24.5v0c.07.16.14.33.2.49v0c.07.17.12.34.18.51v0c0,.17.1.33.14.5v0c0,.17.07.34.1.51h0a4.43,4.43,0,0,1,.06.51v0a4.18,4.18,0,0,1,0,.5c0,.16,0,.32,0,.47v0l-.06.4v0a3.1,3.1,0,0,1-.1.36.25.25,0,0,1,0,.07,1.57,1.57,0,0,1-.12.3v0a3.07,3.07,0,0,1-.17.31l0,0a1.84,1.84,0,0,1-.17.22l-.06.07-.17.16-.07.06a2.07,2.07,0,0,1-.24.17h0l154.38-89.5a1.44,1.44,0,0,0,.25-.18l.07-.06.16-.15.07-.08a1.77,1.77,0,0,0,.16-.22l0,0h0c0-.09.11-.19.16-.3h0l0,0a1.67,1.67,0,0,0,.08-.2s0-.07,0-.11l0-.06a.14.14,0,0,1,0-.06,1.42,1.42,0,0,0,.05-.22.24.24,0,0,0,0-.08v-.05s0,0,0-.08l0-.21s0-.08,0-.11v-.09c0-.07,0-.14,0-.21s0-.14,0-.21h0A1.21,1.21,0,0,0,272.16,21.7Z" style="fill:#37474f"></path><path d="M212.56,132.69l17.12,1.47.07,22.68c-10.9,6.29-19.76,1.24-19.8-11.28A35.92,35.92,0,0,1,212.56,132.69Z" style="fill:#BA68C8"></path><path d="M239.53,108.79c5.89.54,9.86,5.57,9.89,13.95,0,12.53-8.77,27.8-19.67,34.1l-.07-22.7,9.76-25.22Z" style="fill:#BA68C8"></path><path d="M229.62,111.49a17.05,17.05,0,0,1,9.87-2.66l-.05.13-9.76,25.2-17.12-1.47C216,124,222.32,115.71,229.62,111.49Z" style="fill:#BA68C8"></path><g style="opacity:0.2"><path d="M229.62,111.49a17.05,17.05,0,0,1,9.87-2.66l-.05.13-9.76,25.2-17.12-1.47C216,124,222.32,115.71,229.62,111.49Z" style="fill:#fff"></path></g><path d="M212.56,132.69l17.12,1.47.07,22.68c-10.9,6.29-19.76,1.24-19.8-11.28A35.92,35.92,0,0,1,212.56,132.69Z" style="fill:#BA68C8"></path><g style="opacity:0.1"><path d="M239.53,108.79c5.89.54,9.86,5.57,9.89,13.95,0,12.53-8.77,27.8-19.67,34.1l-.07-22.7,9.76-25.22Z"></path></g><path d="M214.75,74.51c1.47-.84,2.65-.16,2.66,1.52a5.83,5.83,0,0,1-2.64,4.57c-1.47.85-2.65.17-2.66-1.51A5.86,5.86,0,0,1,214.75,74.51Z" style="fill:#BA68C8"></path><path d="M214.78,85c1.47-.85,2.65-.17,2.66,1.51a5.85,5.85,0,0,1-2.64,4.58c-1.47.84-2.65.16-2.66-1.52A5.83,5.83,0,0,1,214.78,85Z" style="fill:#BA68C8"></path><path d="M214.81,95.5c1.46-.85,2.65-.17,2.66,1.51a5.86,5.86,0,0,1-2.64,4.58c-1.47.84-2.65.16-2.66-1.52A5.83,5.83,0,0,1,214.81,95.5Z" style="fill:#BA68C8"></path><path d="M214.84,106c1.46-.85,2.65-.17,2.66,1.51a5.85,5.85,0,0,1-2.64,4.58c-1.47.84-2.65.17-2.66-1.52A5.83,5.83,0,0,1,214.84,106Z" style="fill:#BA68C8"></path><polygon points="229.67 67.19 229.68 70.69 220.97 75.72 220.96 72.23 229.67 67.19" style="fill:#e0e0e0"></polygon><polygon points="241.31 60.47 241.32 63.97 232.61 69 232.6 65.5 241.31 60.47" style="fill:#e0e0e0"></polygon><polygon points="244.7 90.05 244.71 93.55 232.17 100.79 232.16 97.29 244.7 90.05" style="fill:#e0e0e0"></polygon><polygon points="237.02 83.98 237.03 87.47 221.03 96.71 221.02 93.21 237.02 83.98" style="fill:#e0e0e0"></polygon><polygon points="232.01 76.36 232.02 79.85 221 86.22 220.99 82.72 232.01 76.36" style="fill:#e0e0e0"></polygon><polygon points="229.76 98.67 229.77 102.17 221.06 107.2 221.05 103.71 229.76 98.67" style="fill:#e0e0e0"></polygon><polygon points="133.66 210.52 133.66 213.83 124.56 219.09 124.55 215.78 133.66 210.52" style="fill:#e0e0e0"></polygon><polygon points="137.82 194.89 137.82 198.19 124.52 205.87 124.51 202.57 137.82 194.89" style="fill:#e0e0e0"></polygon><polygon points="153.91 192.21 153.92 195.51 124.54 212.48 124.53 209.18 153.91 192.21" style="fill:#e0e0e0"></polygon><polygon points="201.78 157.96 201.79 161.26 174.61 176.95 174.6 173.65 201.78 157.96" style="fill:#e0e0e0"></polygon><polygon points="160.95 194.76 160.96 198.07 138.3 211.15 138.29 207.85 160.95 194.76" style="fill:#e0e0e0"></polygon><polygon points="149.09 181.76 149.09 185.07 124.5 199.27 124.49 195.96 149.09 181.76" style="fill:#e0e0e0"></polygon><polygon points="201.8 164.56 201.81 167.87 189.7 174.85 189.69 171.55 201.8 164.56" style="fill:#e0e0e0"></polygon><polygon points="201.82 171.17 201.83 174.47 185.33 184 185.32 180.69 201.82 171.17" style="fill:#e0e0e0"></polygon><polygon points="198.94 146.09 198.95 147.81 124.55 190.78 124.55 189.06 198.94 146.09" style="fill:#395a65"></polygon><polygon points="150.99 123.03 151.17 169.77 140.55 175.9 140.37 129.16 150.99 123.03" style="fill:#BA68C8"></polygon><polygon points="150.99 105.12 150.99 123.03 140.37 129.16 140.37 111.25 150.99 105.12" style="fill:#e0e0e0"></polygon><polygon points="166.94 127.85 167.09 160.57 156.48 166.71 156.33 133.98 166.94 127.85" style="fill:#BA68C8"></polygon><polygon points="166.94 95.88 166.94 127.85 156.33 133.98 156.33 102.01 166.94 95.88" style="fill:#e0e0e0"></polygon><polygon points="182.8 98.54 183.02 151.38 172.4 157.51 172.19 104.67 182.8 98.54" style="fill:#BA68C8"></polygon><polygon points="182.8 86.98 182.8 98.54 172.19 104.67 172.19 93.11 182.8 86.98" style="fill:#e0e0e0"></polygon><polygon points="198.69 77.56 198.95 142.19 188.33 148.31 188.07 83.69 198.69 77.56" style="fill:#BA68C8"></polygon><polygon points="135.14 159.41 135.24 178.97 124.62 185.1 124.52 165.54 135.14 159.41" style="fill:#BA68C8"></polygon><polygon points="135.14 115.01 135.14 159.41 124.52 165.54 124.52 121.14 135.14 115.01" style="fill:#e0e0e0"></polygon><path d="M196.47,183.36h0a5,5,0,0,0-4.16-2.75,1.73,1.73,0,0,0-.54.11L67.46,252.5A3.61,3.61,0,0,0,66,254.05a3.56,3.56,0,0,0-.37,1.58v111a3.46,3.46,0,0,0,4.63,3.1h0a.59.59,0,0,0,.14-.06l124.31-71.82a3.6,3.6,0,0,0,1.82-3.13V183.75A1,1,0,0,0,196.47,183.36Z" style="fill:#BA68C8"></path><path d="M65.64,255.63v111a3.46,3.46,0,0,0,4.63,3.1h0a.9.9,0,0,1-1.2-.84v-111a3.57,3.57,0,0,1,.61-2L66,254.05A3.56,3.56,0,0,0,65.64,255.63Z" style="fill:#fff;opacity:0.2"></path><path d="M192.31,180.61a1.73,1.73,0,0,0-.54.11L67.46,252.5A3.61,3.61,0,0,0,66,254.05l3.69,1.84a3.58,3.58,0,0,1,1.21-1.14L195.22,183a.9.9,0,0,1,1.25.39h0A5,5,0,0,0,192.31,180.61Z" style="fill:#fff;opacity:0.4"></path><path d="M196.47,183.36h0a5,5,0,0,0-4.16-2.75,1.73,1.73,0,0,0-.54.11L67.46,252.5A3.61,3.61,0,0,0,66,254.05a3.56,3.56,0,0,0-.37,1.58v111a3.46,3.46,0,0,0,4.63,3.1h0a.59.59,0,0,0,.14-.06l124.31-71.82a3.6,3.6,0,0,0,1.82-3.13V183.75A1,1,0,0,0,196.47,183.36Z" style="fill:#fff;opacity:0.30000000000000004"></path><path d="M188.84,198.6h0a3.81,3.81,0,0,0-3.18-2.1,1.4,1.4,0,0,0-.41.08L76.89,259a2.75,2.75,0,0,0-1.39,2.39v79.15A2.64,2.64,0,0,0,79,342.91h0l.11-.05,108.36-62.45a2.75,2.75,0,0,0,1.39-2.39V198.9A.73.73,0,0,0,188.84,198.6Z" style="fill:#fff;opacity:0.4"></path><polygon points="98.04 298.44 98.11 325.85 92.49 329.1 92.44 308.88 92.42 301.68 98.04 298.44" style="fill:#BA68C8"></polygon><polygon points="92.44 308.88 92.49 329.1 86.87 332.35 86.81 312.13 92.44 308.88" style="fill:#455a64"></polygon><polygon points="109.27 287.18 109.36 319.36 103.74 322.61 103.65 290.43 109.27 287.18" style="fill:#455a64"></polygon><polygon points="126.13 276.55 126.15 281.27 126.23 309.62 120.61 312.87 120.51 279.79 126.13 276.55" style="fill:#455a64"></polygon><polygon points="131.77 278.02 131.85 306.38 126.23 309.62 126.15 281.27 131.77 278.02" style="fill:#BA68C8"></polygon><polygon points="182.28 217.35 182.45 277.16 176.83 280.41 176.72 241.25 176.66 220.59 182.28 217.35" style="fill:#BA68C8"></polygon><polygon points="176.72 241.25 176.83 280.41 171.21 283.65 171.1 244.5 176.72 241.25" style="fill:#455a64"></polygon><polygon points="159.83 244.09 159.96 290.15 154.34 293.39 154.21 247.33 159.83 244.09" style="fill:#455a64"></polygon><polygon points="165.44 234.06 165.58 286.9 159.96 290.15 159.83 244.09 159.81 237.31 165.44 234.06" style="fill:#BA68C8"></polygon><polygon points="187.15 277.05 187.15 278.19 82.19 338.78 82.19 337.64 187.15 277.05" style="fill:#455a64"></polygon><polygon points="148.61 257.89 148.72 296.64 143.09 299.88 143 264.89 142.99 261.14 148.61 257.89" style="fill:#BA68C8"></polygon><g style="opacity:0.4"><polygon points="76.34 354.93 76.34 357.57 83.62 353.37 83.62 350.72 76.34 354.93" style="fill:#fff"></polygon><polygon points="99.81 336.09 76.32 349.65 76.33 352.29 99.82 338.73 99.81 336.09" style="fill:#fff"></polygon><polygon points="164.25 299.08 140.76 312.64 140.77 315.28 164.26 301.71 164.25 299.08" style="fill:#fff"></polygon><polygon points="109.14 335.99 109.15 338.63 121.22 331.66 121.21 329.02 109.14 335.99" style="fill:#fff"></polygon><polygon points="166.27 298.01 166.28 300.66 178.35 293.69 178.34 291.04 166.27 298.01" style="fill:#fff"></polygon><polygon points="126.16 326.33 126.17 328.98 147.21 316.91 147.2 314.27 126.16 326.33" style="fill:#fff"></polygon><polygon points="103.52 333.95 103.52 336.59 124.72 324.35 124.71 321.71 103.52 333.95" style="fill:#fff"></polygon><polygon points="87.32 348.58 87.33 351.23 105.44 340.77 105.44 338.12 87.32 348.58" style="fill:#fff"></polygon><polygon points="138.09 313.99 128.41 319.57 128.42 322.21 138.1 316.62 138.09 313.99" style="fill:#fff"></polygon></g><path d="M310.18,102.68h0A5,5,0,0,0,306,99.93a1.79,1.79,0,0,0-.55.1l-78.28,45.14a3.61,3.61,0,0,0-1.45,1.55,3.56,3.56,0,0,0-.37,1.58v111a3.46,3.46,0,0,0,4.64,3.1h0l.15-.06,78.28-45.17a3.6,3.6,0,0,0,1.82-3.13V103.07A.93.93,0,0,0,310.18,102.68Z" style="fill:#BA68C8"></path><path d="M225.37,148.3v111a3.46,3.46,0,0,0,4.64,3.1h0a.9.9,0,0,1-1.2-.84v-111a3.57,3.57,0,0,1,.61-2l-3.69-1.84A3.56,3.56,0,0,0,225.37,148.3Z" style="fill:#fff;opacity:0.2"></path><path d="M306,99.93a1.79,1.79,0,0,0-.55.1l-78.28,45.14a3.61,3.61,0,0,0-1.45,1.55l3.69,1.84a3.58,3.58,0,0,1,1.21-1.14l78.29-45.14a.9.9,0,0,1,1.25.4h0A5,5,0,0,0,306,99.93Z" style="fill:#fff;opacity:0.4"></path><path d="M310.18,102.67h0A5,5,0,0,0,306,99.93a1.79,1.79,0,0,0-.55.1l-78.28,45.14a3.61,3.61,0,0,0-1.45,1.55,3.56,3.56,0,0,0-.37,1.58v111a3.46,3.46,0,0,0,4.64,3.1h0l.15-.06,78.28-45.17a3.6,3.6,0,0,0,1.82-3.13V103.07A1,1,0,0,0,310.18,102.67Z" style="fill:#fff;opacity:0.30000000000000004"></path><polygon points="236.49 152.9 302.6 114.79 302.6 192 236.49 230.15 236.49 152.9" style="fill:#fff;opacity:0.4"></polygon><g style="opacity:0.4"><polygon points="247.83 235.5 247.84 238.32 236.44 244.9 236.44 242.07 247.83 235.5" style="fill:#fff"></polygon><polygon points="261.61 233.21 261.62 236.03 236.46 250.56 236.45 247.73 261.61 233.21" style="fill:#fff"></polygon><polygon points="302.59 203.88 302.6 206.7 279.33 220.14 279.32 217.31 302.59 203.88" style="fill:#fff"></polygon><polygon points="277.7 212.58 277.7 215.41 261.45 224.8 261.44 221.97 277.7 212.58" style="fill:#fff"></polygon><polygon points="275.36 219.6 275.36 222.43 251.81 236.03 251.8 233.21 275.36 219.6" style="fill:#fff"></polygon><polygon points="257.48 224.26 257.48 227.09 236.43 239.25 236.42 236.41 257.48 224.26" style="fill:#fff"></polygon><polygon points="286.56 218.99 286.57 221.82 265.51 233.97 265.51 231.14 286.56 218.99" style="fill:#fff"></polygon></g><polygon points="258.53 197.11 260.97 204.39 258.69 213.98 253.86 216.77 258.53 197.11" style="fill:#BA68C8"></polygon><polygon points="258.53 197.11 260.97 204.39 258.69 213.98 253.86 216.77 258.53 197.11" style="opacity:0.2"></polygon><polygon points="260.97 204.39 263.3 211.32 258.69 213.98 260.97 204.39" style="fill:#BA68C8"></polygon><g style="opacity:0.30000000000000004"><polygon points="260.97 204.39 263.3 211.32 258.69 213.98 260.97 204.39"></polygon></g><polygon points="264.09 191.27 269.6 207.68 263.3 211.32 260.97 204.39 264.09 191.27" style="fill:#BA68C8"></polygon><g style="opacity:0.2"><polygon points="264.09 191.27 269.6 207.68 263.3 211.32 260.97 204.39 264.09 191.27"></polygon></g><polygon points="261.65 184 264.09 191.27 260.97 204.39 258.53 197.11 261.65 184" style="fill:#BA68C8"></polygon><polygon points="250.83 174.2 258.53 197.11 253.86 216.77 238.62 225.57 250.83 174.2" style="fill:#BA68C8"></polygon><polygon points="282.18 164.69 292.22 194.62 272.33 206.11 282.18 164.69" style="fill:#BA68C8"></polygon><polygon points="282.18 164.69 292.22 194.62 272.33 206.11 282.18 164.69" style="opacity:0.2"></polygon><polygon points="275.29 144.18 282.18 164.69 272.33 206.11 269.6 207.68 264.09 191.27 275.29 144.18" style="fill:#BA68C8"></polygon><polygon points="286.99 144.42 301.96 189 292.22 194.62 282.18 164.69 286.99 144.42" style="fill:#BA68C8"></polygon><polygon points="286.99 144.42 282.18 164.69 275.29 144.18 264.09 191.27 261.65 184 258.53 197.11 250.83 174.2 238.62 225.57 253.86 216.77 258.69 213.98 263.3 211.32 269.6 207.68 272.33 206.11 292.22 194.62 301.96 189 286.99 144.42" style="opacity:0.1"></polygon><path d="M130.17,140.58h0a5,5,0,0,0-4.16-2.75,1.84,1.84,0,0,0-.55.11L38.8,188.17A3.63,3.63,0,0,0,37,191.3v55.45a3.46,3.46,0,0,0,4.64,3.1h0l.15-.06,86.67-50.27a3.58,3.58,0,0,0,1.82-3.13V141A.87.87,0,0,0,130.17,140.58Z" style="fill:#BA68C8"></path><path d="M37,191.3v55.45a3.46,3.46,0,0,0,4.64,3.1h0a.9.9,0,0,1-1.2-.84V193.55a3.57,3.57,0,0,1,.61-2l-3.69-1.84A3.53,3.53,0,0,0,37,191.3Z" style="fill:#fff;opacity:0.2"></path><path d="M126,137.83a1.84,1.84,0,0,0-.55.11L38.8,188.17a3.55,3.55,0,0,0-1.45,1.55L41,191.56a3.49,3.49,0,0,1,1.21-1.14l86.67-50.23a.9.9,0,0,1,1.25.39h0A5,5,0,0,0,126,137.83Z" style="fill:#fff;opacity:0.4"></path><path d="M130.17,140.58h0a5,5,0,0,0-4.16-2.75,1.84,1.84,0,0,0-.55.11L38.8,188.17A3.63,3.63,0,0,0,37,191.3v55.45a3.46,3.46,0,0,0,4.64,3.1h0l.15-.06,86.67-50.27a3.58,3.58,0,0,0,1.82-3.13V141A.87.87,0,0,0,130.17,140.58Z" style="fill:#fff;opacity:0.30000000000000004"></path><polygon points="120.85 155.55 120.86 160.43 48.37 202.28 48.36 197.4 48.37 202.28 106.87 168.51 106.85 163.63 120.85 155.55" style="fill:#f5f5f5"></polygon><polygon points="112.79 184.02 112.81 188.91 48.44 226.07 48.43 221.18 112.79 184.02" style="fill:#fff;opacity:0.4"></polygon><polygon points="120.94 187.25 120.95 192.14 48.46 233.99 48.45 229.1 48.46 233.99 88.77 210.72 88.75 205.84 120.94 187.25" style="fill:#f5f5f5"></polygon><polygon points="88.75 205.84 88.77 210.72 48.46 233.99 48.45 229.1 88.75 205.84" style="fill:#BA68C8"></polygon><polygon points="120.91 179.33 120.93 184.22 48.44 226.07 48.43 221.18 48.44 226.07 112.81 188.91 112.79 184.02 120.91 179.33" style="fill:#f5f5f5"></polygon><polygon points="120.89 171.4 120.91 176.28 48.42 218.13 48.4 213.25 48.42 218.13 94.28 191.65 94.26 186.77 120.89 171.4" style="fill:#f5f5f5"></polygon><polygon points="94.26 186.77 94.28 191.65 48.42 218.13 48.4 213.25 94.26 186.77" style="fill:#BA68C8"></polygon><polygon points="120.87 163.47 120.88 168.35 48.4 210.21 48.38 205.32 48.4 210.21 75.41 194.61 75.39 189.73 120.87 163.47" style="fill:#f5f5f5"></polygon><polygon points="75.39 189.73 75.41 194.61 48.4 210.21 48.38 205.32 75.39 189.73" style="fill:#BA68C8"></polygon><polygon points="106.85 163.63 106.87 168.51 48.37 202.28 48.36 197.4 106.85 163.63" style="fill:#BA68C8"></polygon><polygon points="112.79 184.02 112.81 188.91 48.44 226.07 48.43 221.18 112.79 184.02" style="fill:#fff;opacity:0.4"></polygon><polygon points="88.75 205.84 88.77 210.72 48.46 233.99 48.45 229.1 88.75 205.84" style="fill:#fff;opacity:0.4"></polygon><polygon points="94.26 186.77 94.28 191.65 48.42 218.13 48.4 213.25 94.26 186.77" style="fill:#fff;opacity:0.4"></polygon><polygon points="75.39 189.73 75.41 194.61 48.4 210.21 48.38 205.32 75.39 189.73" style="fill:#fff;opacity:0.4"></polygon><g style="opacity:0.4"><polygon points="106.85 163.63 106.87 168.51 48.37 202.28 48.36 197.4 106.85 163.63" style="fill:#fff"></polygon></g><polygon points="180.69 183.37 180.69 186.68 165.59 195.4 165.58 192.09 180.69 183.37" style="fill:#e0e0e0"></polygon><polygon points="185.06 174.23 185.07 177.53 158.56 192.84 158.55 189.53 185.06 174.23" style="fill:#e0e0e0"></polygon><polygon points="172.7 168.13 172.71 171.43 153.73 182.39 153.72 179.08 172.7 168.13" style="fill:#e0e0e0"></polygon><polygon points="169.97 176.32 169.98 179.63 142.46 195.51 142.45 192.21 169.97 176.32" style="fill:#e0e0e0"></polygon><polygon points="143 264.89 143.09 299.88 137.47 303.13 137.37 268.14 143 264.89" style="fill:#455a64"></polygon><polygon points="114.86 272.6 114.98 316.12 109.36 319.36 109.27 287.18 109.24 275.84 114.86 272.6" style="fill:#BA68C8"></polygon><polygon points="180.86 202.57 177.99 209.98 176.98 208.57 131.22 265.46 112.73 263.88 86.65 295.72 85.84 294.52 112.74 261.67 131.21 263.25 176.14 207.4 175.08 205.91 180.86 202.57" style="fill:#455a64"></polygon></g><g id="freepik--character-3--inject-513"><path d="M395.29,329.82a2.73,2.73,0,0,0,5.17-.24,8.47,8.47,0,0,0,.47-3.13c.07-3.52,0-7.05-.25-10.57a35.84,35.84,0,0,1-7.38.77c.37,3.25.75,6.51,1.13,9.76A9,9,0,0,0,395.29,329.82Z" style="fill:#ffa8a7"></path><path d="M403,324.75c-.91-2.94-1.91-5.94-1.7-9l-.61.14c.23,3.52.32,7.05.25,10.57a8.47,8.47,0,0,1-.47,3.13,2.73,2.73,0,0,1-5.17.24,9,9,0,0,1-.86-3.41c-.38-3.25-.76-6.51-1.13-9.76l-.78,0c.66,3.65.18,7.39,0,11.1s-.19,7.56,1.4,10.91a4.91,4.91,0,0,0,1.81,2.23,3.73,3.73,0,0,0,2.93.27,6.55,6.55,0,0,0,2.54-1.58,10.45,10.45,0,0,0,3.09-5.8C404.75,330.77,403.9,327.68,403,324.75Z" style="fill:#455a64"></path><path d="M364.53,321.94l.61,3.63a9,9,0,0,0,3.81-2.92c.07-2.79,0-5.66,0-7.06-.77,1.7-2.45,2.84-3.49,4.41A8.31,8.31,0,0,0,364.53,321.94Z" style="fill:#37474f"></path><path d="M363.6,325.18l1.54.39-.61-3.63C364.15,323,363.9,324.09,363.6,325.18Z" style="fill:#263238"></path><path d="M369.11,311.56a14.77,14.77,0,0,0-1.2-2.77,7.92,7.92,0,0,1-1.33,4.19c-1,1.67-2.43,3.11-3.42,4.81-1.22,2.07-1.85,4.5-3.44,6.29a7.51,7.51,0,0,1-6.29,2.45,3.33,3.33,0,0,1-2.3-1,1.9,1.9,0,0,1-.38-1.1,16.92,16.92,0,0,1-2.59,2.27c-1.05.73-2.31,1.5-2.48,2.77a2.71,2.71,0,0,0,1.51,2.58,7.26,7.26,0,0,0,3.07.69,19.66,19.66,0,0,0,6.75-.58,9.41,9.41,0,0,0,5.39-3.91,12.12,12.12,0,0,0,1.2-3c.3-1.09.55-2.2.93-3.24a8.31,8.31,0,0,1,1-1.94c1-1.57,2.72-2.71,3.49-4.41,0-.09.09-.18.12-.27A6,6,0,0,0,369.11,311.56Z" style="fill:#455a64"></path><path d="M353.43,326.53a7.51,7.51,0,0,0,6.29-2.45c1.59-1.79,2.22-4.22,3.44-6.29,1-1.7,2.38-3.14,3.42-4.81a7.92,7.92,0,0,0,1.33-4.19l-.37-.71c-3.14.56-6.57.76-9.59,1.78a62,62,0,0,1-3.54,9.24,22.87,22.87,0,0,1-3.66,5.3,1.9,1.9,0,0,0,.38,1.1A3.33,3.33,0,0,0,353.43,326.53Z" style="fill:#ffa8a7"></path><path d="M362,195.63l-.51,8c-6,24.74-4.22,61.71-4.22,61.71l.19,45.07a7.64,7.64,0,0,0,10.68-2.31c1-11.08,6.17-28.5,4.63-42.11,2.06-10.72,3.61-26,3.61-26l5.05,26.38,10.51,50.92c4.64,2,8.76.62,10.1-1.19-1.08-28.08-.62-41.58-4.95-54.57,1.34-34.84,1.75-50.58-6.74-62.55l.11-4.52Z" style="fill:#37474f"></path><path d="M375.19,234.11a19.66,19.66,0,0,1-8.61-3.85,8.65,8.65,0,0,0,6.3,5.62l2.65,11,.8-6.8Z" style="opacity:0.2"></path><path d="M370.22,168.3l-4.2-.08a9.72,9.72,0,0,0-8.84,5.69L349.39,191c-7.08,2-12,5.77-18.48,6.25-1.26,0-5.7-2.21-7.44-3.1a.63.63,0,0,0-.91.41h0a1.61,1.61,0,0,0,.59,1.7l2.07,1.56c-4.17.88-7.44-1.53-8.88.34s-.43,4.82,4.06,6.37,10.22.75,15.89-.54,18.29-5,18.29-5C365.54,188.33,370.22,168.3,370.22,168.3Z" style="fill:#ffa8a7"></path><path d="M370.22,168.3c-8.79-1.36-12.09,2.57-13.55,5.66s-7.49,16.59-7.49,16.59a58.87,58.87,0,0,0-11.11,4.92c3.17,3.65,2.33,6.71,1.64,7.69a99.31,99.31,0,0,0,14-2.69,6.39,6.39,0,0,0,3-1.9C367.92,185.74,370.38,169.42,370.22,168.3Z" style="fill:#455a64"></path><path d="M370.22,168.3c-8.79-1.36-12.09,2.57-13.55,5.66s-7.49,16.59-7.49,16.59a58.87,58.87,0,0,0-11.11,4.92c3.17,3.65,2.33,6.71,1.64,7.69a99.31,99.31,0,0,0,14-2.69,6.39,6.39,0,0,0,3-1.9C367.92,185.74,370.38,169.42,370.22,168.3Z" style="fill:#fff;opacity:0.2"></path><path d="M372.41,167.94l-3,.22a3.89,3.89,0,0,0-2.93,1.7l-7,10.41a8.44,8.44,0,0,0,.56,10.19h0a4.91,4.91,0,0,1,1.13,3.82l-3.6,27.52c13.82,10.26,35,6.07,41.25,2.72a45.57,45.57,0,0,0-6.14-22.18,12.7,12.7,0,0,1-1.21-9.72l2-7.15-6-17Z" style="fill:#455a64"></path><path d="M372.41,167.94l-3,.22a3.89,3.89,0,0,0-2.93,1.7l-7,10.41a8.44,8.44,0,0,0,.56,10.19h0a4.91,4.91,0,0,1,1.13,3.82l-3.6,27.52c13.82,10.26,35,6.07,41.25,2.72a45.57,45.57,0,0,0-6.14-22.18,12.7,12.7,0,0,1-1.21-9.72l2-7.15-6-17Z" style="fill:#fff;opacity:0.30000000000000004"></path><path d="M363.36,151.41a9.8,9.8,0,0,1-1.18-12.29,3.31,3.31,0,0,1,.6-6.33,9.32,9.32,0,0,1,3.56.51,17.24,17.24,0,0,0,6.12,0c2-.29,4.05-.73,6.1-.88a12.39,12.39,0,0,1,6,.86,6.74,6.74,0,0,1,3.9,4.48c1.58-.43,3.46.59,4.47,1.87a7.77,7.77,0,0,1,1.47,4.59c.07,1.63-.16,3.26-.24,4.89a11.22,11.22,0,0,0,.61,4.82c.74,1.77,2.2,3.21,2.67,5.06a5.09,5.09,0,0,1-6.23,6.16,13.71,13.71,0,0,0,.48-4c-.16,1.79-2,3.2-3.65,3.8a14.17,14.17,0,0,1-5.36.47l-6.34-.25L369,164.9a10.06,10.06,0,0,1-3.86-.66,6.61,6.61,0,0,1-3.45-5.68A17.24,17.24,0,0,1,363.36,151.41Z" style="fill:#263238"></path><polygon points="372.41 161.71 372.41 174.85 382.99 166.89 382.99 157.19 372.41 161.71" style="fill:#ffa8a7"></polygon><path d="M383,157.19c-1.63,4.83-7.54,8.5-10.58,9.23v-4.71Z" style="fill:#f28f8f"></path><path d="M381.72,149.52a10.31,10.31,0,0,0-.11,2.54,3,3,0,0,0,.84,1.7,1.89,1.89,0,0,0,1.71.5,3.31,3.31,0,0,1,6.43-1.57,4.16,4.16,0,0,1-.69,3.45,7.87,7.87,0,0,1-2.77,2.31,2.8,2.8,0,0,1-3.34-1.32c-3.23,4.09-8.85,7.16-14.11,6.72a7.57,7.57,0,0,1-4-1.42c-2-1.54-2.14-3.86-2.39-6.16a32.53,32.53,0,0,1,.07-8.76A17.25,17.25,0,0,1,368.88,137C370.69,145.68,378.67,148.88,381.72,149.52Z" style="fill:#ffa8a7"></path><polygon points="370.76 148.53 367.15 152.97 370.51 154.13 370.76 148.53" style="fill:#f28f8f"></polygon><path d="M373.58,156.29l-2.8.89a1.73,1.73,0,0,0,1.9.86A1.55,1.55,0,0,0,373.58,156.29Z" style="fill:#f28f8f"></path><path d="M373.58,156.29l-2.8.89a1.73,1.73,0,0,0,1.9.86A1.55,1.55,0,0,0,373.58,156.29Z" style="opacity:0.30000000000000004"></path><path d="M371.76,158a1.62,1.62,0,0,0,.92,0,1.42,1.42,0,0,0,.9-1.28,1.61,1.61,0,0,0-1.82,1.23Z" style="fill:#f28f8f"></path><path d="M375.72,149.45a1,1,0,0,1-1,1,1,1,0,1,1,.09-2A1,1,0,0,1,375.72,149.45Z" style="fill:#263238"></path><path d="M367.34,148.75a1,1,0,0,1-1,1,1,1,0,0,1-1-1.05,1,1,0,0,1,1.05-.95A1,1,0,0,1,367.34,148.75Z" style="fill:#263238"></path><path d="M366.55,144.73l-2.29,1.43a1.44,1.44,0,0,1,.51-1.55A1.69,1.69,0,0,1,366.55,144.73Z" style="fill:#263238"></path><path d="M375.12,145l2.15,1.64a1.43,1.43,0,0,0-.37-1.59A1.7,1.7,0,0,0,375.12,145Z" style="fill:#263238"></path><path d="M372.41,166.89a25.14,25.14,0,0,0-4.23,6.23,1.67,1.67,0,0,0,1.94,2.27l2.29-.54Z" style="fill:#e0e0e0"></path><path d="M372.41,174.85l10.58-8c.18,5-2.25,9.42-3.76,11.67a1.67,1.67,0,0,1-2.54.29Z" style="fill:#e0e0e0"></path><path d="M387.36,168.45c-1,9.47,2.33,14.12,11,30.57,0,0-2,12.11-5.57,18.93-3.54,1.44-5.32,3.89-7.36,4.94a.67.67,0,0,0-.28.93c.83,1.32,3,.31,5-.84-2.54,4.12-3.26,4.8-4.54,6.08s-.4,3.37,3.09,3.37,5.45-2.72,6.09-3.65,5-9.66,5-9.66l7.88-15.84a8.52,8.52,0,0,0,.21-7.12l-9-21.2a10.72,10.72,0,0,0-9.85-6.51Z" style="fill:#ffa8a7"></path><path d="M387.36,168.45c-3.15,10.71,9.11,27.8,10.65,30.54-1,2.31-2.4,11.7-2.4,11.7,5,.61,6.78,3.21,6.78,3.21l5.19-9.2a10.76,10.76,0,0,0,.5-9.56c-2.49-5.77-6.55-15.18-8.6-20C396.39,167.85,390.06,168.38,387.36,168.45Z" style="fill:#455a64"></path><path d="M387.36,168.45c-3.15,10.71,9.11,27.8,10.65,30.54-1,2.31-2.4,11.7-2.4,11.7,5,.61,6.78,3.21,6.78,3.21l5.19-9.2a10.76,10.76,0,0,0,.5-9.56c-2.49-5.77-6.55-15.18-8.6-20C396.39,167.85,390.06,168.38,387.36,168.45Z" style="fill:#fff;opacity:0.2"></path></g><g id="freepik--character-2--inject-513"><path d="M321.69,235.25l-2.67,5,2.37,1.61C321.53,239.71,321.55,237.38,321.69,235.25Z" style="fill:#bf706f"></path><path d="M344,254.7c5.56-4.44,10.16,3.89,13.53,13.18,2,5.64,4.14,11.14,5.47,14.6a7,7,0,0,1-.94,6.74l-9.91,13.17-4.42-9.56,5.48-8.32-5.58-10.21Z" style="fill:#BA68C8"></path><path d="M290.71,298.93a28.79,28.79,0,0,1-9.49,2.77,17.62,17.62,0,0,1-9.65-1.67,13,13,0,0,1-6.4-7.4l0,0a3,3,0,0,1,3.78-.56,12.61,12.61,0,0,0,9.5,1.13,21.64,21.64,0,0,1-2.68-3.35c-.39-.6-.74-1.38-.35-2a1.35,1.35,0,0,1,1.52-.41,4.54,4.54,0,0,1,1.41.91,19.19,19.19,0,0,0,8.3,3.89C287.91,294.35,289.47,296.83,290.71,298.93Z" style="fill:#d18786"></path><path d="M307.91,427.71a4,4,0,0,0,2.9.81,33.89,33.89,0,0,0,9.17-1.28,18.85,18.85,0,0,0,4.83-2,13.06,13.06,0,0,0,4.25-4.34,35.09,35.09,0,0,1-.69-5.87c-2.54,0-5.17,0-7.71,0v4.14A39.47,39.47,0,0,1,308,424.7a2,2,0,0,0,0,3Z" style="fill:#d18786"></path><path d="M329.66,423.39c-.23-.83-.43-1.67-.6-2.51a13.06,13.06,0,0,1-4.25,4.34,18.85,18.85,0,0,1-4.83,2,33.89,33.89,0,0,1-9.17,1.28,4,4,0,0,1-2.9-.81,2,2,0,0,1,0-3l-1,.25a10.27,10.27,0,0,0-3.5,1.13,3,3,0,0,0-1.49,3.12,3.87,3.87,0,0,0,2.4,2.2,17.7,17.7,0,0,0,12.53.66c2.53-.83,5-2.25,7.64-2.17,1.52,0,3.19.54,4.47-.29a3.41,3.41,0,0,0,1.35-2.92A12.5,12.5,0,0,0,329.66,423.39Z" style="fill:#BA68C8"></path><path d="M339.23,398.57a2.9,2.9,0,0,0-2.55,2.41c-.08,1.21.86,2.22,1.73,3.07l3.33,3.25a7.79,7.79,0,0,0,3.18,2.19,4.4,4.4,0,0,0,3.73-.8,5.28,5.28,0,0,0,1.48-1.8c-.11-.75-.2-1.51-.34-2.26a5.91,5.91,0,0,0-1-2.69c-1.06-1.32-2.78-1.5-4.34-1.65a5.62,5.62,0,0,1-3-1.59A6,6,0,0,0,339.23,398.57Z" style="fill:#d18786"></path><path d="M350.13,406.89a5.28,5.28,0,0,1-1.48,1.8,4.4,4.4,0,0,1-3.73.8,7.79,7.79,0,0,1-3.18-2.19l-3.33-3.25c-.87-.85-1.81-1.86-1.73-3.07a2.9,2.9,0,0,1,2.55-2.41,6,6,0,0,1,2.24.13l-.34-.24a15.44,15.44,0,0,0-2.72-1.53,4.89,4.89,0,0,0-3.3-.43,3.54,3.54,0,0,0-2.27,3.27,6.23,6.23,0,0,0,1.43,3.91,27.41,27.41,0,0,0,3,3A36.89,36.89,0,0,1,341,411a23,23,0,0,0,2.69,3.28,5.5,5.5,0,0,0,3.82,1.62,3.24,3.24,0,0,0,2.84-1.81,5.18,5.18,0,0,0,.25-2.22A49.47,49.47,0,0,0,350.13,406.89Z" style="fill:#BA68C8"></path><path d="M315.62,308.85c-2.34,29.55-.59,60.33-.59,60.33s4.09,33,4.68,46.9c3.33,3.29,9.73,0,9.73,0,1.83-24.14,6.66-33.43,1.39-48.46L334.6,333l1.5,27.79,5.7,43.33c3.47,2.51,7.95,0,7.95,0,1.85-21.24,6.19-30.89,0-48.16,7.41-34.38,5-47.44,4-50.91Z" style="fill:#BA68C8"></path><path d="M315.62,308.85c-2.34,29.55-.59,60.33-.59,60.33s4.09,33,4.68,46.9c3.33,3.29,9.73,0,9.73,0,1.83-24.14,6.66-33.43,1.39-48.46L334.6,333l1.5,27.79,5.7,43.33c3.47,2.51,7.95,0,7.95,0,1.85-21.24,6.19-30.89,0-48.16,7.41-34.38,5-47.44,4-50.91Z" style="opacity:0.4"></path><path d="M315.62,308.85c-2.34,29.55-.59,60.33-.59,60.33s4.09,33,4.68,46.9c3.33,3.29,9.73,0,9.73,0,1.83-24.14,6.66-33.43,1.39-48.46L334.6,333l1.5,27.79,5.7,43.33c3.47,2.51,7.95,0,7.95,0,1.85-21.24,6.19-30.89,0-48.16,7.41-34.38,5-47.44,4-50.91Z" style="fill:#fff;opacity:0.1"></path><path d="M344,254.7c5.56-4.44,10.16,3.89,13.53,13.18,2,5.64,4.14,11.14,5.47,14.6a7,7,0,0,1-.94,6.74l-9.91,13.17-4.42-9.56,5.48-8.32-5.58-10.21Z" style="fill:#fff;opacity:0.2"></path><path d="M325.56,257.5c5-1.54,19.45-4.7,23.12-1.39,3.2,2.89,5.28,12.85,1,25.64a15.11,15.11,0,0,0,.51,11.16,66.54,66.54,0,0,1,4.37,12.57c-11.63,11.85-32.11,10-39.86,5a188.79,188.79,0,0,1,2.44-28.3Z" style="fill:#BA68C8"></path><path d="M325.56,257.5c5-1.54,19.45-4.7,23.12-1.39,3.2,2.89,5.28,12.85,1,25.64a15.11,15.11,0,0,0,.51,11.16,66.54,66.54,0,0,1,4.37,12.57c-11.63,11.85-32.11,10-39.86,5a188.79,188.79,0,0,1,2.44-28.3Z" style="fill:#fff;opacity:0.4"></path><path d="M325.56,257.5c5-1.54,19.45-4.7,23.12-1.39,3.2,2.89,5.28,12.85,1,25.64a15.11,15.11,0,0,0,.51,11.16,66.54,66.54,0,0,1,4.37,12.57c-11.63,11.85-32.11,10-39.86,5a188.79,188.79,0,0,1,2.44-28.3Z" style="fill:#fff;opacity:0.1"></path><path d="M322.09,231.32A8.33,8.33,0,0,1,318,223.5a10.08,10.08,0,0,1,5.08-7.65,11.82,11.82,0,0,1,9.25-.85c2.68.84,5.06,2.55,7.81,3.1,2.39.48,5,.07,7.22,1,2.83,1.16,4.48,4.17,5.2,7.15a20.07,20.07,0,0,1-1.06,12.61,26.56,26.56,0,0,1-9.85,10.77c-3.81,4.55-10.59,1.58-13.46-2.28S322.09,231.32,322.09,231.32Z" style="fill:#7a4140"></path><path d="M323.82,228a19.09,19.09,0,0,0-3,8.61,57.51,57.51,0,0,0-.13,9.19,5.89,5.89,0,0,0,.84,3.4,4.69,4.69,0,0,0,3.78,1.49c1.4,0,2.68,0,4.2-.05l.31,6.35c5,2.78,10.64.84,12.1-1.14l-.25-6.22c-7.79,1.47-12-1.2-12.73-6a5.47,5.47,0,0,0,4.5-1.17,5.2,5.2,0,0,0,1.48-4.27,3.43,3.43,0,0,0-.81-1.89,3,3,0,0,0-3.19-.66,4.83,4.83,0,0,0-2.51,2.23,12.37,12.37,0,0,0-1.17,3.23,2.92,2.92,0,0,1-.94-3.16c.21-.57.63-1.12.54-1.73s-.8-1.1-1.12-1.71a2.32,2.32,0,0,1-.12-1.72,7.15,7.15,0,0,1,.75-1.58A15.42,15.42,0,0,0,323.82,228Z" style="fill:#d18786"></path><path d="M353.82,246.16a28,28,0,0,1-6.22-10.09,18.4,18.4,0,0,1-.14-11.73,11.92,11.92,0,0,1,3.74-5.5,8,8,0,0,1,6.31-1.71c3.51.64,6,4,6.66,7.54s-.26,7.11-1.4,10.49c-1.42,4.22-4.68,9.42-4.12,15.38A30.89,30.89,0,0,1,353.82,246.16Z" style="fill:#995e5d"></path><path d="M325.56,257.5c-9.16-4-10.22,4.73-15.25,14-3.08,6-6.88,11.73-6.88,11.73a69.61,69.61,0,0,1-17,7.8c-2,5.26,2.63,10.43,2.63,10.43l19.67-8.58a17.85,17.85,0,0,0,8.06-7C323.91,274.42,329.1,266.28,325.56,257.5Z" style="fill:#BA68C8"></path><path d="M325.56,257.5c-9.16-4-10.22,4.73-15.25,14-3.08,6-6.88,11.73-6.88,11.73a69.61,69.61,0,0,1-17,7.8c-2,5.26,2.63,10.43,2.63,10.43l19.67-8.58a17.85,17.85,0,0,0,8.06-7C323.91,274.42,329.1,266.28,325.56,257.5Z" style="fill:#fff;opacity:0.2"></path><path d="M347.32,318.54a17.71,17.71,0,0,1-11.62,4.34L334.6,333l1,18.56,2-26.84A13.78,13.78,0,0,0,347.32,318.54Z" style="opacity:0.30000000000000004"></path></g><g id="freepik--character-1--inject-513"><path d="M163.89,281.7l-2.36,5,5.64,6.21-.41,14.83-18.19-15.8a4.93,4.93,0,0,1-1.21-5.86l5.55-11.54Z" style="fill:#995e5d"></path><path d="M158.28,291.12a11.41,11.41,0,0,0,3.25-4.44l1.41,1.55A7.27,7.27,0,0,1,158.28,291.12Z" style="fill:#7a4140"></path><path d="M164.34,282.9c-7.22-.63-12.15-8.12-12.15-8.12,6.47-13.24,12.11-28,23.4-24.45Z" style="fill:#BA68C8"></path><path d="M164.34,282.9c-7.22-.63-12.15-8.12-12.15-8.12,6.47-13.24,12.11-28,23.4-24.45Z" style="opacity:0.4"></path><path d="M192.55,438.58c.68,2.15,3,3.38,5.29,3.56s4.46-.46,6.68-.86c5-.9,9.76,0,14.71-.12a21.16,21.16,0,0,0,4.83-.53,7.9,7.9,0,0,0,4.14-2.44,5.32,5.32,0,0,0,1.19-2.59,5.15,5.15,0,0,1-1.19,4,8,8,0,0,1-4.14,2.43,20.61,20.61,0,0,1-4.83.53c-4.95.12-9.74-.78-14.71.12-2.22.41-4.44,1-6.68.86s-4.61-1.41-5.29-3.56a5.69,5.69,0,0,1-.17-2.29A3.91,3.91,0,0,0,192.55,438.58Z" style="fill:#263238"></path><path d="M192.68,434.46c.3-1.5.61-3,.91-4.51a6.53,6.53,0,0,1,.77-2.29,2.24,2.24,0,0,1,2-1.15c2.72-.36,6.55-1.35,8.81.21a20.33,20.33,0,0,0,12.16,3.53c2.25-.09,4.5-.55,6.73-.27s4.55,1.51,5.22,3.66a4.34,4.34,0,0,1,.11,2,5.32,5.32,0,0,1-1.19,2.59,7.9,7.9,0,0,1-4.14,2.44,21.16,21.16,0,0,1-4.83.53c-4.95.11-9.74-.78-14.71.12-2.22.4-4.44,1-6.68.86s-4.61-1.41-5.29-3.56a3.91,3.91,0,0,1-.17-.84A10.47,10.47,0,0,1,192.68,434.46Z" style="fill:#455a64"></path><path d="M205.83,422l.19,5.88a2.32,2.32,0,0,1-2.16,2.4,35.38,35.38,0,0,1-5.92-.06,3.34,3.34,0,0,1-3-3.14l-.23-4.34Z" style="fill:#ffa8a7"></path><path d="M205.83,422l.19,5.88a2.32,2.32,0,0,1-2.16,2.4,35.38,35.38,0,0,1-5.92-.06,3.34,3.34,0,0,1-3-3.14l-.23-4.34Z" style="opacity:0.4"></path><path d="M167.45,418.86a4.48,4.48,0,0,0,.79,2.43,4.39,4.39,0,0,0,2.77,1.56,7,7,0,0,0,6.88-2.83c.74-1.07,1.16-2.33,1.86-3.43a15.64,15.64,0,0,1,3.86-3.75,16.05,16.05,0,0,0,3.89-3.73,5.48,5.48,0,0,0,.75-5,4.29,4.29,0,0,1,.36.63,5.63,5.63,0,0,1-.7,5.29,16.47,16.47,0,0,1-4,3.84,15.88,15.88,0,0,0-3.93,3.87c-.72,1.13-1.15,2.43-1.9,3.53a7.11,7.11,0,0,1-7,2.92,4.46,4.46,0,0,1-2.83-1.61,5.44,5.44,0,0,1-.82-3.37C167.43,419.11,167.44,419,167.45,418.86Z" style="fill:#263238"></path><path d="M169.23,411.49c1.79-3.14,5.47-5.42,8.32-7.63a10.66,10.66,0,0,1,5.51-2.51,5.17,5.17,0,0,1,5.13,2.63,1,1,0,0,0,.06.16,5.48,5.48,0,0,1-.75,5,16.05,16.05,0,0,1-3.89,3.73,15.64,15.64,0,0,0-3.86,3.75c-.7,1.1-1.12,2.36-1.86,3.43a7,7,0,0,1-6.88,2.83,4.39,4.39,0,0,1-2.77-1.56,4.48,4.48,0,0,1-.79-2.43,7.85,7.85,0,0,1,0-.84A13.82,13.82,0,0,1,169.23,411.49Z" style="fill:#455a64"></path><path d="M177,408.77v5.34a8.94,8.94,0,0,1-8.31-.37l-.5-4.8Z" style="fill:#ffa8a7"></path><path d="M177,408.77v5.34a8.94,8.94,0,0,1-8.31-.37l-.5-4.8Z" style="opacity:0.4"></path><path d="M166.76,311.85c-1.6,4.8-1.1,30-.17,51.91-1.53,10.66-1.48,33.75.53,50.45,0,0,5.57,3.07,13.32.26l4.72-50.67,1.09-26.05s2,23.11,4.25,37.93c-.82,10.88,1,31.69,2.58,53.88,0,0,8.57,5,17.08-.48,3-49.06-1.86-98.74-2.84-114.83Z" style="fill:#37474f"></path><path d="M185.59,353.61l.89-21.24c-5.49,0-10.58-4.1-14.46-8C175.74,331,183,334,183,334Z" style="opacity:0.30000000000000004"></path><path d="M208.15,274v41.59c-24.49,10.26-40.36,1-42.51-3.83,1.12-16.93-2.88-36.74-2.57-45.15s1.34-17.9,14.39-16l13.87,1.35,7,1.71Z" style="fill:#BA68C8"></path><path d="M208.15,274v41.59c-24.49,10.26-40.36,1-42.51-3.83,1.12-16.93-2.88-36.74-2.57-45.15s1.34-17.9,14.39-16l13.87,1.35,7,1.71Z" style="opacity:0.30000000000000004"></path><path d="M221.15,271.7l4.68,4.86L237,261.71a43.32,43.32,0,0,1-2.74-12.31,1.33,1.33,0,0,1,1.33-1.39h0a1.31,1.31,0,0,1,1.19.76l2.08,4.36h0a2.06,2.06,0,0,0,1.29-1.27l.41-1.15a7.25,7.25,0,0,0,.41-2.4v-2.87a2.31,2.31,0,0,1,3.42-2,11.22,11.22,0,0,1,3.39,2.8,6.1,6.1,0,0,1,1.38,3.88V254a8.6,8.6,0,0,1-.51,2.93l-2,5.56a8.52,8.52,0,0,1-.7,1.46L231.5,288.18A6.88,6.88,0,0,1,221,289.8l-9.21-8.18Z" style="fill:#995e5d"></path><path d="M228.69,282.53a14.07,14.07,0,0,0-2.86-6l1.29-1.71C228.09,276.65,229.46,280.15,228.69,282.53Z" style="fill:#995e5d"></path><path d="M228.69,282.53a14.07,14.07,0,0,0-2.86-6l1.29-1.71C228.09,276.65,229.46,280.15,228.69,282.53Z" style="fill:#7a4140"></path><path d="M222.31,271.73l-13.16-12.94a18.47,18.47,0,0,0-10.81-5.18l-.23,0c-5.57,12.2,1.79,18.15,1.79,18.15L212.13,283A22.09,22.09,0,0,0,222.31,271.73Z" style="fill:#BA68C8"></path><path d="M222.31,271.73l-13.16-12.94a18.47,18.47,0,0,0-10.81-5.18l-.23,0c-5.57,12.2,1.79,18.15,1.79,18.15L212.13,283A22.09,22.09,0,0,0,222.31,271.73Z" style="opacity:0.4"></path><path d="M198,223.36a2,2,0,0,0,.28-2.17,2.49,2.49,0,0,0,2.07-.29,1.88,1.88,0,0,0,.9-1.76,1.59,1.59,0,0,0-1.33-1.41,2.62,2.62,0,0,0,1.58-1.08,2.59,2.59,0,0,0,.5-1.84,3.36,3.36,0,0,0-2.32-2.58,8.18,8.18,0,0,0-3.62-.2,2.89,2.89,0,0,0-1.52-3.42,3.54,3.54,0,0,0-3.32.54,10.38,10.38,0,0,0-2.35,2.59,10.34,10.34,0,0,0-14.71,5.74,7.1,7.1,0,0,0-4.6,4.79A11.24,11.24,0,0,0,170,229a30.84,30.84,0,0,0,3.14,6.06l1.74,2.75c.73,1.15,2.59,4,3.31,5.16a10.8,10.8,0,0,0,10.26-.64,17.45,17.45,0,0,0,6.59-8.17A55.79,55.79,0,0,0,198,223.36Z" style="fill:#263238"></path><path d="M182.56,244.14a9.84,9.84,0,0,1-4.49-1l0,0,0,0-1.63-2.54c-.65-1-1.31-2-1.68-2.62l-.09-.13L173,235.14a30.69,30.69,0,0,1-3.16-6.09,11.48,11.48,0,0,1-.4-6.82,7.22,7.22,0,0,1,4.63-4.88,11,11,0,0,1,6.1-6.31,10.75,10.75,0,0,1,8.68.5,10.18,10.18,0,0,1,2.31-2.52,3.7,3.7,0,0,1,3.47-.56,3.1,3.1,0,0,1,1.68,3.39,8,8,0,0,1,3.45.23,3.48,3.48,0,0,1,2.42,2.71,2.67,2.67,0,0,1-.53,2,3.13,3.13,0,0,1-1.17,1,1.82,1.82,0,0,1,1,1.39,2.09,2.09,0,0,1-1,1.92,2.77,2.77,0,0,1-1.9.38,2,2,0,0,1-.39,2,55.26,55.26,0,0,1-3,10.78,17.51,17.51,0,0,1-6.65,8.25A11.36,11.36,0,0,1,182.56,244.14Zm-4.31-1.29a10.6,10.6,0,0,0,10.07-.65,17.53,17.53,0,0,0,6.53-8.1,55.78,55.78,0,0,0,3-10.77v-.05l0,0a1.8,1.8,0,0,0,.25-2l-.16-.34.36.12a2.33,2.33,0,0,0,1.93-.27,1.74,1.74,0,0,0,.83-1.62,1.47,1.47,0,0,0-1.2-1.27l-1.15-.13,1.14-.17a2.43,2.43,0,0,0,1.48-1,2.33,2.33,0,0,0,.47-1.73,3.16,3.16,0,0,0-2.21-2.44,8.09,8.09,0,0,0-3.55-.19l-.25,0,.09-.24a2.79,2.79,0,0,0-1.44-3.23,3.42,3.42,0,0,0-3.17.53,10.26,10.26,0,0,0-2.32,2.55l-.07.11-.12-.06a10.48,10.48,0,0,0-8.54-.55,10.6,10.6,0,0,0-5.95,6.2l0,.08-.08,0a7,7,0,0,0-4.49,4.68,11.22,11.22,0,0,0,.39,6.64,30.69,30.69,0,0,0,3.14,6c.54.87,1.09,1.74,1.64,2.61l.09.14,1.68,2.61C177.27,241.31,177.89,242.27,178.25,242.85Z" style="fill:#272525"></path><path d="M199.57,230.49l2.2,3.81-2.17.8A44.29,44.29,0,0,0,199.57,230.49Z" style="fill:#7a4140"></path><path d="M198,223.36a30.51,30.51,0,0,1,1.58,7.13,44.29,44.29,0,0,1,0,4.61,45.06,45.06,0,0,1-.75,6.44,7.09,7.09,0,0,1-1.27,3.23,5.09,5.09,0,0,1-3.51,1.61,15,15,0,0,1-3.94-.38v6.25c-4.74,1.12-8.66,1.61-12.38-1.25l.39-8a11.71,11.71,0,0,0,6.68-1.06c3.27-1.77,4.19-4.59,3.73-6.17a2.45,2.45,0,0,1-2.56.9,3.44,3.44,0,0,1-2.13-1.68,7.25,7.25,0,0,1-.79-2.66,4.85,4.85,0,0,1,.48-3.3,3.45,3.45,0,0,1,3.71-1.25,5.35,5.35,0,0,1,3.13,2.61,10.81,10.81,0,0,1,.55,1.2.74.74,0,0,0,1.43-.19,9.8,9.8,0,0,0-.94-5.22,3.86,3.86,0,0,0,1.75.4,2.18,2.18,0,0,0,1.68-.78,1.49,1.49,0,0,0,.06-1.77C196.49,224.79,198,223.36,198,223.36Z" style="fill:#995e5d"></path></g></svg>